<svg width="143" height="30" viewBox="0 0 143 30" fill="none" xmlns="http://www.w3.org/2000/svg">
<g clip-path="url(#clip0_1667_5627)">
<path d="M7.59098 23.4294C7.59098 24.9447 7.29532 26.1828 6.68552 27.1437C6.15584 28.0331 5.3877 28.7564 4.46809 29.2317C3.69691 29.6352 2.84351 29.8564 1.97347 29.8785L0.273438 25.7023C0.812804 25.5458 1.3028 25.253 1.69629 24.8523C2.01959 24.4409 2.22408 23.9488 2.28761 23.4294C2.39793 22.5841 2.44733 21.7319 2.43544 20.8794V6.98346H7.59098V23.4294ZM7.70185 2.84425C7.70895 3.19657 7.64189 3.54644 7.505 3.87116C7.36811 4.19587 7.16446 4.48817 6.90727 4.72907C6.65814 4.97927 6.3613 5.17689 6.03435 5.31021C5.70741 5.44353 5.35702 5.50982 5.00397 5.50517C4.53067 5.51376 4.06408 5.39232 3.65503 5.15408C3.25697 4.92235 2.92587 4.59125 2.69414 4.19319C2.4559 3.78413 2.33446 3.31755 2.34304 2.84425C2.34024 2.49421 2.40746 2.14714 2.54074 1.82346C2.67402 1.49977 2.87068 1.20601 3.11915 0.959429C3.35896 0.700841 3.65105 0.49625 3.97603 0.359251C4.301 0.222252 4.65141 0.155983 5.00397 0.164848C5.35875 0.159689 5.7108 0.227567 6.03823 0.364261C6.36566 0.500955 6.66147 0.703543 6.90727 0.959429C7.16087 1.20309 7.36213 1.4959 7.49875 1.81997C7.63537 2.14404 7.70448 2.49257 7.70185 2.84425Z" fill="white"/>
<path d="M45.4754 6.98438L38.8601 22.5249H35.0535L28.5859 6.98438H34.1111L37.1231 15.115L40.4677 6.98438H45.4754Z" fill="white"/>
<path d="M60.8097 16.0718H50.5725C50.7626 17.0031 51.2888 17.8319 52.0508 18.4001C52.8067 18.9999 53.7468 19.3198 54.7117 19.3056C56.4487 19.3056 58.352 18.7882 60.4586 17.7533V21.1534C59.5859 21.6222 58.67 22.0059 57.7237 22.2991C56.652 22.6317 55.2846 22.8165 53.64 22.8165C51.8475 22.8165 50.3323 22.4654 49.0757 21.7447C47.8681 21.0774 46.8845 20.0681 46.2485 18.8436C45.604 17.5539 45.2807 16.1275 45.3061 14.6859C45.2805 13.262 45.604 11.8536 46.2485 10.5836C46.8817 9.37119 47.8674 8.37904 49.0757 7.73793C50.3323 7.05422 51.8475 6.70312 53.64 6.70312C54.827 6.7065 55.9971 6.9848 57.0585 7.51618C58.1672 8.05207 59.0542 8.95752 59.7749 10.1956C60.4955 11.4337 60.8466 13.0228 60.8466 14.9816V16.0718H60.8097ZM55.9868 13.3554C55.9868 12.3576 55.7465 11.563 55.2846 10.9717C54.8226 10.3804 54.1574 10.0847 53.2889 10.0847C52.8954 10.071 52.5039 10.1452 52.1427 10.3018C51.7815 10.4585 51.4597 10.6936 51.2008 10.9902C50.6649 11.6 50.4062 12.3761 50.4062 13.3554H55.9868Z" fill="white"/>
<path d="M9.95443 14.5595C9.93588 12.6857 10.1155 10.8151 10.4903 8.97899C10.6566 8.07354 11.5805 7.18656 12.486 6.9833C13.3545 6.79851 15.8491 6.48438 18.8427 6.48438C21.8362 6.48438 24.4602 6.79851 25.3287 6.9833C26.2341 7.18656 27.1396 8.07354 27.3243 8.97899C27.5091 9.88444 27.7678 11.566 27.7678 14.5595C27.7937 16.4013 27.6265 18.2408 27.2689 20.0477C27.1026 20.9531 26.1787 21.8401 25.2732 22.0434C24.4232 22.2282 21.8547 22.5238 18.9166 22.5423L13.9273 26.4228V22.2651C13.2621 22.1912 12.7447 22.0988 12.4306 22.0434C11.5251 21.8401 10.6197 20.9531 10.4349 20.0477C10.2501 19.1422 9.95443 17.5531 9.95443 14.5595ZM24.6634 9.58879C24.0167 9.45944 21.7253 9.18226 18.8427 9.18226C16.9379 9.17066 15.035 9.30658 13.1512 9.58879C13.1328 9.60726 13.1143 9.60726 13.0958 9.62574V9.6627C12.7702 11.2742 12.6154 12.9156 12.6338 14.5595C12.6338 17.1281 12.8925 18.5324 13.0588 19.3825C13.0773 19.4009 13.0958 19.4194 13.1143 19.4194C13.8165 19.5673 16.0524 19.826 18.8057 19.826C20.7533 19.8344 22.6989 19.6985 24.6265 19.4194C24.6449 19.4009 24.6634 19.4009 24.6819 19.3825C24.8482 18.5324 25.1069 17.1281 25.1069 14.5595C25.1069 12.0464 24.9036 10.5497 24.7373 9.62574C24.6819 9.60726 24.6634 9.60726 24.6634 9.58879Z" fill="#2183ED"/>
</g>
<path d="M134.233 15.0415V23.0433H131.609V5.07422H134.198V11.76H134.364C134.68 11.0347 135.163 10.4585 135.812 10.0315C136.461 9.60452 137.31 9.39102 138.357 9.39102C139.281 9.39102 140.088 9.58112 140.778 9.96133C141.474 10.3415 142.012 10.9089 142.393 11.6635C142.779 12.4122 142.972 13.3481 142.972 14.4712V23.0433H140.348V14.787C140.348 13.7985 140.094 13.0322 139.585 12.4882C139.076 11.9384 138.368 11.6635 137.462 11.6635C136.842 11.6635 136.286 11.7951 135.795 12.0583C135.309 12.3215 134.926 12.7076 134.645 13.2165C134.37 13.7195 134.233 14.3279 134.233 15.0415Z" fill="white"/>
<path d="M124.009 23.3149C122.704 23.3149 121.581 23.0196 120.64 22.4288C119.704 21.8321 118.984 21.0103 118.481 19.9633C117.978 18.9162 117.727 17.7171 117.727 16.3659C117.727 14.9972 117.984 13.7893 118.499 12.7423C119.013 11.6894 119.739 10.8676 120.675 10.2768C121.611 9.68602 122.713 9.39062 123.982 9.39062C125.006 9.39062 125.919 9.58073 126.72 9.96093C127.521 10.3353 128.168 10.8617 128.659 11.5403C129.156 12.2188 129.452 13.0114 129.545 13.918H126.992C126.852 13.2863 126.53 12.7423 126.027 12.286C125.53 11.8298 124.863 11.6017 124.026 11.6017C123.295 11.6017 122.655 11.7947 122.105 12.1808C121.561 12.561 121.137 13.1049 120.833 13.8127C120.528 14.5146 120.376 15.3452 120.376 16.3045C120.376 17.2872 120.525 18.1354 120.824 18.849C121.122 19.5626 121.543 20.1154 122.087 20.5073C122.637 20.8992 123.283 21.0951 124.026 21.0951C124.523 21.0951 124.974 21.0045 125.377 20.8231C125.787 20.636 126.129 20.3698 126.404 20.0247C126.685 19.6796 126.881 19.2643 126.992 18.7788H129.545C129.452 19.6503 129.168 20.4283 128.694 21.1127C128.22 21.797 127.586 22.3352 126.79 22.7271C126 23.119 125.073 23.3149 124.009 23.3149Z" fill="white"/>
<path d="M108.925 23.3413C108.071 23.3413 107.299 23.1833 106.608 22.8675C105.918 22.5458 105.371 22.0807 104.968 21.4724C104.57 20.8641 104.371 20.1183 104.371 19.235C104.371 18.4746 104.517 17.8487 104.81 17.3574C105.102 16.8661 105.497 16.4771 105.994 16.1905C106.491 15.9038 107.047 15.6874 107.661 15.5412C108.276 15.395 108.901 15.2838 109.539 15.2078C110.346 15.1142 111.001 15.0381 111.504 14.9797C112.007 14.9153 112.373 14.8129 112.601 14.6726C112.829 14.5322 112.943 14.3041 112.943 13.9882V13.9268C112.943 13.1605 112.727 12.5668 112.294 12.1457C111.867 11.7245 111.229 11.5139 110.381 11.5139C109.498 11.5139 108.802 11.7099 108.293 12.1018C107.79 12.4878 107.442 12.9178 107.249 13.3916L104.783 12.83C105.076 12.0111 105.503 11.3501 106.064 10.8471C106.632 10.3382 107.284 9.96971 108.021 9.74158C108.758 9.50761 109.533 9.39062 110.346 9.39062C110.884 9.39062 111.455 9.45497 112.057 9.58365C112.665 9.70649 113.233 9.93461 113.759 10.268C114.292 10.6014 114.727 11.0782 115.067 11.6982C115.406 12.3124 115.575 13.1108 115.575 14.0935V23.0429H113.013V21.2004H112.908C112.739 21.5397 112.484 21.8731 112.145 22.2006C111.806 22.5282 111.37 22.8002 110.838 23.0166C110.305 23.2331 109.668 23.3413 108.925 23.3413ZM109.495 21.2355C110.22 21.2355 110.84 21.0922 111.355 20.8056C111.876 20.519 112.271 20.1446 112.54 19.6825C112.815 19.2146 112.952 18.7144 112.952 18.1822V16.4449C112.858 16.5385 112.677 16.6262 112.408 16.7081C112.145 16.7842 111.844 16.8514 111.504 16.9099C111.165 16.9626 110.835 17.0123 110.513 17.0591C110.191 17.1 109.922 17.1351 109.706 17.1644C109.197 17.2287 108.732 17.3369 108.311 17.489C107.895 17.6411 107.562 17.8604 107.31 18.1471C107.065 18.4278 106.942 18.8022 106.942 19.2701C106.942 19.9194 107.182 20.4108 107.661 20.7442C108.141 21.0717 108.752 21.2355 109.495 21.2355Z" fill="white"/>
<path d="M96.5361 23.3149C95.2726 23.3149 94.17 23.0254 93.2283 22.4463C92.2865 21.8672 91.5554 21.0571 91.0348 20.0159C90.5142 18.9747 90.2539 17.7581 90.2539 16.3659C90.2539 14.968 90.5142 13.7454 91.0348 12.6984C91.5554 11.6514 92.2865 10.8383 93.2283 10.2592C94.17 9.68017 95.2726 9.39062 96.5361 9.39062C97.7995 9.39062 98.9021 9.68017 99.8439 10.2592C100.786 10.8383 101.517 11.6514 102.037 12.6984C102.558 13.7454 102.818 14.968 102.818 16.3659C102.818 17.7581 102.558 18.9747 102.037 20.0159C101.517 21.0571 100.786 21.8672 99.8439 22.4463C98.9021 23.0254 97.7995 23.3149 96.5361 23.3149ZM96.5449 21.1127C97.3638 21.1127 98.0423 20.8962 98.5804 20.4634C99.1186 20.0305 99.5163 19.4544 99.7737 18.7349C100.037 18.0155 100.169 17.2229 100.169 16.3572C100.169 15.4973 100.037 14.7077 99.7737 13.9882C99.5163 13.2629 99.1186 12.6809 98.5804 12.2422C98.0423 11.8035 97.3638 11.5841 96.5449 11.5841C95.7201 11.5841 95.0357 11.8035 94.4917 12.2422C93.9536 12.6809 93.5529 13.2629 93.2897 13.9882C93.0323 14.7077 92.9037 15.4973 92.9037 16.3572C92.9037 17.2229 93.0323 18.0155 93.2897 18.7349C93.5529 19.4544 93.9536 20.0305 94.4917 20.4634C95.0357 20.8962 95.7201 21.1127 96.5449 21.1127Z" fill="white"/>
<path d="M88.5661 10.9173H85.8287C85.7234 10.3323 85.5274 9.8176 85.2408 9.37305C84.9542 8.9285 84.6032 8.55122 84.1879 8.24121C83.7726 7.93119 83.3076 7.69722 82.7929 7.53929C82.284 7.38136 81.7429 7.30239 81.1697 7.30239C80.1343 7.30239 79.2072 7.56268 78.3883 8.08327C77.5753 8.60387 76.9318 9.3672 76.458 10.3733C75.9901 11.3794 75.7561 12.6077 75.7561 14.0584C75.7561 15.5207 75.9901 16.7549 76.458 17.761C76.9318 18.7671 77.5782 19.5275 78.3971 20.0422C79.216 20.557 80.1373 20.8143 81.1609 20.8143C81.7283 20.8143 82.2664 20.7383 82.7753 20.5862C83.29 20.4283 83.7551 20.1972 84.1704 19.8931C84.5857 19.5889 84.9366 19.2175 85.2232 18.7788C85.5157 18.3342 85.7175 17.8253 85.8287 17.2521L88.5661 17.2609C88.4199 18.1441 88.1362 18.9572 87.7151 19.7C87.2998 20.437 86.7645 21.0746 86.1094 21.6128C85.4601 22.1451 84.7173 22.5574 83.8808 22.8499C83.0444 23.1424 82.1319 23.2886 81.1433 23.2886C79.5874 23.2886 78.2011 22.9201 76.9845 22.1831C75.7678 21.4402 74.8085 20.3786 74.1066 18.9981C73.4105 17.6177 73.0625 15.9711 73.0625 14.0584C73.0625 12.1398 73.4135 10.4932 74.1154 9.1186C74.8173 7.73816 75.7766 6.67944 76.9932 5.94242C78.2099 5.19956 79.5933 4.82812 81.1433 4.82812C82.0968 4.82812 82.9859 4.96558 83.8106 5.2405C84.6412 5.50957 85.387 5.90733 86.048 6.43377C86.709 6.95436 87.2559 7.59193 87.6887 8.34649C88.1216 9.09521 88.4141 9.95213 88.5661 10.9173Z" fill="white"/>
<defs>
<clipPath id="clip0_1667_5627">
<rect width="60.536" height="29.7137" fill="white" transform="translate(0.273438 0.164062)"/>
</clipPath>
</defs>
</svg>
