<svg width="147" height="30" viewBox="0 0 147 30" fill="none" xmlns="http://www.w3.org/2000/svg">
<path d="M0 4C0 1.79086 1.79086 0 4 0H143C145.209 0 147 1.79086 147 4V30H0V4Z" fill="#2183ED"/>
<path d="M18.5 21C18.2875 21 18.1095 20.928 17.966 20.784C17.8225 20.64 17.7505 20.462 17.75 20.25C17.7495 20.038 17.8215 19.86 17.966 19.716C18.1105 19.572 18.2885 19.5 18.5 19.5H27.5C27.7125 19.5 27.8908 19.572 28.0348 19.716C28.1788 19.86 28.2505 20.038 28.25 20.25C28.2495 20.462 28.1775 20.6403 28.034 20.7848C27.8905 20.9293 27.7125 21.001 27.5 21H18.5ZM19.025 18.375C18.6625 18.375 18.3408 18.2563 18.0598 18.0188C17.7788 17.7813 17.6068 17.4813 17.5438 17.1188L16.7938 12.3563C16.7688 12.3563 16.7408 12.3595 16.7098 12.366C16.6788 12.3725 16.6505 12.3755 16.625 12.375C16.3125 12.375 16.047 12.2658 15.8285 12.0473C15.61 11.8288 15.5005 11.563 15.5 11.25C15.4995 10.937 15.609 10.6715 15.8285 10.4535C16.048 10.2355 16.3135 10.126 16.625 10.125C16.9365 10.124 17.2023 10.2335 17.4223 10.4535C17.6423 10.6735 17.7515 10.939 17.75 11.25C17.75 11.3375 17.7405 11.4188 17.7215 11.4938C17.7025 11.5688 17.6808 11.6375 17.6563 11.7L20 12.75L22.3438 9.54375C22.2063 9.44375 22.0938 9.3125 22.0063 9.15C21.9188 8.9875 21.875 8.8125 21.875 8.625C21.875 8.3125 21.9845 8.04675 22.2035 7.82775C22.4225 7.60875 22.688 7.4995 23 7.5C23.312 7.5005 23.5778 7.61 23.7973 7.8285C24.0168 8.047 24.126 8.3125 24.125 8.625C24.125 8.8125 24.0813 8.9875 23.9938 9.15C23.9063 9.3125 23.7938 9.44375 23.6563 9.54375L26 12.75L28.3438 11.7C28.3188 11.6375 28.2968 11.5688 28.2778 11.4938C28.2588 11.4188 28.2495 11.3375 28.25 11.25C28.25 10.9375 28.3595 10.6718 28.5785 10.4528C28.7975 10.2338 29.063 10.1245 29.375 10.125C29.687 10.1255 29.9528 10.235 30.1723 10.4535C30.3918 10.672 30.501 10.9375 30.5 11.25C30.499 11.5625 30.3898 11.8283 30.1723 12.0473C29.9548 12.2663 29.689 12.3755 29.375 12.375C29.35 12.375 29.322 12.372 29.291 12.366C29.26 12.36 29.2318 12.3568 29.2063 12.3563L28.4563 17.1188C28.3938 17.4813 28.222 17.7813 27.941 18.0188C27.66 18.2563 27.338 18.375 26.975 18.375H19.025ZM19.025 16.875H26.975L27.4625 13.7438L26.6 14.1188C26.275 14.2563 25.9438 14.2813 25.6063 14.1938C25.2688 14.1063 24.9938 13.9188 24.7813 13.6313L23 11.175L21.2188 13.6313C21.0063 13.9188 20.7313 14.1063 20.3938 14.1938C20.0563 14.2813 19.725 14.2563 19.4 14.1188L18.5375 13.7438L19.025 16.875Z" fill="white"/>
<path d="M42.8849 9.81818H45.5398L48.3438 16.6591H48.4631L51.267 9.81818H53.9219V20H51.8338V13.3729H51.7493L49.1143 19.9503H47.6925L45.0575 13.348H44.973V20H42.8849V9.81818ZM59.106 20.1491C58.3337 20.1491 57.6659 19.9851 57.1025 19.657C56.5423 19.3255 56.1098 18.8648 55.8049 18.2749C55.4999 17.6816 55.3475 16.9938 55.3475 16.2116C55.3475 15.4228 55.4999 14.7334 55.8049 14.1435C56.1098 13.5502 56.5423 13.0895 57.1025 12.7614C57.6659 12.4299 58.3337 12.2642 59.106 12.2642C59.8783 12.2642 60.5444 12.4299 61.1046 12.7614C61.668 13.0895 62.1022 13.5502 62.4071 14.1435C62.7121 14.7334 62.8645 15.4228 62.8645 16.2116C62.8645 16.9938 62.7121 17.6816 62.4071 18.2749C62.1022 18.8648 61.668 19.3255 61.1046 19.657C60.5444 19.9851 59.8783 20.1491 59.106 20.1491ZM59.1159 18.5085C59.4673 18.5085 59.7606 18.4091 59.9959 18.2102C60.2312 18.008 60.4086 17.733 60.5279 17.3849C60.6505 17.0369 60.7118 16.6409 60.7118 16.1967C60.7118 15.7526 60.6505 15.3565 60.5279 15.0085C60.4086 14.6605 60.2312 14.3854 59.9959 14.1832C59.7606 13.9811 59.4673 13.88 59.1159 13.88C58.7613 13.88 58.463 13.9811 58.2211 14.1832C57.9824 14.3854 57.8018 14.6605 57.6792 15.0085C57.5598 15.3565 57.5002 15.7526 57.5002 16.1967C57.5002 16.6409 57.5598 17.0369 57.6792 17.3849C57.8018 17.733 57.9824 18.008 58.2211 18.2102C58.463 18.4091 58.7613 18.5085 59.1159 18.5085ZM70.5953 14.5412L68.6564 14.6605C68.6233 14.4948 68.552 14.3456 68.4426 14.2131C68.3333 14.0772 68.1891 13.9695 68.0101 13.8899C67.8345 13.8071 67.624 13.7656 67.3787 13.7656C67.0506 13.7656 66.7739 13.8352 66.5485 13.9744C66.3231 14.1103 66.2104 14.2926 66.2104 14.5213C66.2104 14.7036 66.2833 14.8577 66.4292 14.9837C66.575 15.1096 66.8252 15.2107 67.1799 15.2869L68.562 15.5653C69.3044 15.7178 69.8579 15.9631 70.2225 16.3011C70.5871 16.6392 70.7694 17.0833 70.7694 17.6335C70.7694 18.134 70.6219 18.5732 70.3269 18.951C70.0352 19.3288 69.6342 19.6238 69.1238 19.8359C68.6167 20.0447 68.0317 20.1491 67.3688 20.1491C66.3579 20.1491 65.5525 19.9387 64.9526 19.5178C64.356 19.0935 64.0063 18.5168 63.9036 17.7876L65.9867 17.6783C66.0497 17.9865 66.2021 18.2218 66.4441 18.3842C66.686 18.5433 66.9959 18.6229 67.3738 18.6229C67.745 18.6229 68.0433 18.5516 68.2686 18.4091C68.4973 18.2633 68.6133 18.076 68.6167 17.8473C68.6133 17.6551 68.5321 17.4976 68.373 17.375C68.214 17.2491 67.9687 17.1529 67.6373 17.0866L66.3148 16.8232C65.5691 16.674 65.0139 16.4155 64.6493 16.0476C64.2881 15.6797 64.1074 15.2107 64.1074 14.6406C64.1074 14.1501 64.24 13.7275 64.5051 13.3729C64.7736 13.0182 65.1498 12.7448 65.6337 12.5526C66.1209 12.3603 66.691 12.2642 67.3439 12.2642C68.3084 12.2642 69.0674 12.468 69.6209 12.8757C70.1777 13.2834 70.5025 13.8385 70.5953 14.5412ZM76.1648 12.3636V13.9545H71.5661V12.3636H76.1648ZM72.6101 10.5341H74.728V17.6534C74.728 17.849 74.7578 18.0014 74.8175 18.1108C74.8771 18.2169 74.96 18.2914 75.0661 18.3345C75.1754 18.3776 75.3014 18.3991 75.4439 18.3991C75.5433 18.3991 75.6428 18.3909 75.7422 18.3743C75.8416 18.3544 75.9179 18.3395 75.9709 18.3295L76.304 19.9055C76.1979 19.9387 76.0488 19.9768 75.8565 20.0199C75.6643 20.0663 75.4306 20.0945 75.1555 20.1044C74.6451 20.1243 74.1977 20.0563 73.8132 19.9006C73.4321 19.7448 73.1354 19.5028 72.9233 19.1747C72.7112 18.8466 72.6068 18.4323 72.6101 17.9318V10.5341ZM80.8244 20V9.81818H84.8414C85.6137 9.81818 86.2716 9.96567 86.8152 10.2607C87.3587 10.5523 87.773 10.9583 88.0581 11.4787C88.3464 11.9957 88.4906 12.5923 88.4906 13.2685C88.4906 13.9446 88.3448 14.5412 88.0531 15.0582C87.7614 15.5753 87.3388 15.978 86.7853 16.2663C86.2351 16.5547 85.569 16.6989 84.7868 16.6989H82.2264V14.9737H84.4387C84.853 14.9737 85.1944 14.9025 85.4629 14.7599C85.7347 14.6141 85.9368 14.4136 86.0694 14.1584C86.2053 13.8999 86.2733 13.6032 86.2733 13.2685C86.2733 12.9304 86.2053 12.6354 86.0694 12.3835C85.9368 12.1283 85.7347 11.9311 85.4629 11.7919C85.1911 11.6494 84.8464 11.5781 84.4288 11.5781H82.9771V20H80.8244ZM93.1763 20.1491C92.4041 20.1491 91.7362 19.9851 91.1728 19.657C90.6126 19.3255 90.1801 18.8648 89.8752 18.2749C89.5703 17.6816 89.4178 16.9938 89.4178 16.2116C89.4178 15.4228 89.5703 14.7334 89.8752 14.1435C90.1801 13.5502 90.6126 13.0895 91.1728 12.7614C91.7362 12.4299 92.4041 12.2642 93.1763 12.2642C93.9486 12.2642 94.6148 12.4299 95.1749 12.7614C95.7383 13.0895 96.1725 13.5502 96.4775 14.1435C96.7824 14.7334 96.9348 15.4228 96.9348 16.2116C96.9348 16.9938 96.7824 17.6816 96.4775 18.2749C96.1725 18.8648 95.7383 19.3255 95.1749 19.657C94.6148 19.9851 93.9486 20.1491 93.1763 20.1491ZM93.1863 18.5085C93.5376 18.5085 93.8309 18.4091 94.0662 18.2102C94.3016 18.008 94.4789 17.733 94.5982 17.3849C94.7208 17.0369 94.7821 16.6409 94.7821 16.1967C94.7821 15.7526 94.7208 15.3565 94.5982 15.0085C94.4789 14.6605 94.3016 14.3854 94.0662 14.1832C93.8309 13.9811 93.5376 13.88 93.1863 13.88C92.8316 13.88 92.5333 13.9811 92.2914 14.1832C92.0527 14.3854 91.8721 14.6605 91.7495 15.0085C91.6301 15.3565 91.5705 15.7526 91.5705 16.1967C91.5705 16.6409 91.6301 17.0369 91.7495 17.3849C91.8721 17.733 92.0527 18.008 92.2914 18.2102C92.5333 18.4091 92.8316 18.5085 93.1863 18.5085ZM98.312 22.8636V12.3636H100.4V13.6463H100.494C100.587 13.4408 100.722 13.232 100.897 13.0199C101.076 12.8045 101.308 12.6255 101.593 12.483C101.882 12.3371 102.24 12.2642 102.667 12.2642C103.224 12.2642 103.738 12.41 104.208 12.7017C104.679 12.9901 105.055 13.4259 105.337 14.0092C105.619 14.5893 105.759 15.3168 105.759 16.1918C105.759 17.0436 105.622 17.7628 105.347 18.3494C105.075 18.9328 104.704 19.3752 104.233 19.6768C103.766 19.9751 103.242 20.1243 102.662 20.1243C102.251 20.1243 101.901 20.0563 101.613 19.9205C101.328 19.7846 101.094 19.6139 100.912 19.4084C100.73 19.1996 100.591 18.9891 100.494 18.777H100.43V22.8636H98.312ZM100.385 16.1818C100.385 16.6359 100.448 17.032 100.574 17.37C100.7 17.7081 100.882 17.9716 101.121 18.1605C101.36 18.3461 101.65 18.4389 101.991 18.4389C102.336 18.4389 102.627 18.3445 102.866 18.1555C103.105 17.9633 103.285 17.6982 103.408 17.3601C103.534 17.0187 103.597 16.6259 103.597 16.1818C103.597 15.741 103.535 15.3532 103.413 15.0185C103.29 14.6837 103.11 14.4219 102.871 14.233C102.632 14.044 102.339 13.9496 101.991 13.9496C101.646 13.9496 101.355 14.0407 101.116 14.223C100.881 14.4053 100.7 14.6638 100.574 14.9986C100.448 15.3333 100.385 15.7277 100.385 16.1818ZM112.068 16.7486V12.3636H114.186V20H112.153V18.6129H112.073C111.901 19.0604 111.614 19.42 111.213 19.6918C110.816 19.9635 110.33 20.0994 109.757 20.0994C109.246 20.0994 108.797 19.9834 108.409 19.7514C108.021 19.5194 107.718 19.1896 107.499 18.7621C107.284 18.3345 107.175 17.8224 107.171 17.2259V12.3636H109.289V16.848C109.293 17.2988 109.414 17.6551 109.652 17.9169C109.891 18.1787 110.211 18.3097 110.612 18.3097C110.867 18.3097 111.106 18.2517 111.328 18.1357C111.55 18.0163 111.729 17.8407 111.865 17.6087C112.004 17.3767 112.072 17.09 112.068 16.7486ZM117.998 9.81818V20H115.88V9.81818H117.998ZM121.872 20.1442C121.385 20.1442 120.951 20.0597 120.57 19.8906C120.189 19.7183 119.887 19.4647 119.665 19.13C119.446 18.7919 119.337 18.371 119.337 17.8672C119.337 17.4429 119.415 17.0866 119.57 16.7983C119.726 16.5099 119.938 16.2779 120.207 16.1023C120.475 15.9266 120.78 15.794 121.122 15.7045C121.466 15.6151 121.828 15.5521 122.205 15.5156C122.65 15.4692 123.008 15.4261 123.279 15.3864C123.551 15.3433 123.748 15.2803 123.871 15.1974C123.994 15.1146 124.055 14.992 124.055 14.8295V14.7997C124.055 14.4848 123.955 14.2412 123.757 14.0689C123.561 13.8965 123.283 13.8104 122.921 13.8104C122.54 13.8104 122.237 13.8949 122.012 14.0639C121.786 14.2296 121.637 14.4384 121.564 14.6903L119.605 14.5312C119.705 14.0672 119.9 13.6662 120.192 13.3281C120.484 12.9867 120.86 12.7249 121.32 12.5426C121.785 12.357 122.321 12.2642 122.931 12.2642C123.356 12.2642 123.762 12.3139 124.149 12.4134C124.54 12.5128 124.887 12.6669 125.188 12.8757C125.493 13.0845 125.734 13.353 125.909 13.6811C126.085 14.0059 126.173 14.3954 126.173 14.8494V20H124.164V18.9411H124.105C123.982 19.1797 123.818 19.3902 123.612 19.5724C123.407 19.7514 123.16 19.8923 122.872 19.995C122.583 20.0945 122.25 20.1442 121.872 20.1442ZM122.479 18.6825C122.79 18.6825 123.066 18.6212 123.304 18.4986C123.543 18.3726 123.73 18.2036 123.866 17.9915C124.002 17.7794 124.07 17.5391 124.07 17.2706V16.4602C124.003 16.5033 123.912 16.5431 123.796 16.5795C123.684 16.6127 123.556 16.6442 123.414 16.674C123.271 16.7005 123.128 16.7254 122.986 16.7486C122.843 16.7685 122.714 16.7867 122.598 16.8033C122.35 16.8397 122.133 16.8977 121.947 16.9773C121.761 17.0568 121.617 17.1645 121.514 17.3004C121.412 17.433 121.36 17.5987 121.36 17.7976C121.36 18.0859 121.465 18.3063 121.673 18.4588C121.886 18.608 122.154 18.6825 122.479 18.6825ZM127.816 20V12.3636H129.869V13.696H129.949C130.088 13.2221 130.322 12.8641 130.65 12.6222C130.978 12.3769 131.356 12.2543 131.783 12.2543C131.889 12.2543 132.004 12.2609 132.126 12.2741C132.249 12.2874 132.357 12.3056 132.449 12.3288V14.2081C132.35 14.1783 132.212 14.1518 132.037 14.1286C131.861 14.1054 131.7 14.0938 131.555 14.0938C131.243 14.0938 130.965 14.1617 130.719 14.2976C130.477 14.4302 130.285 14.6158 130.143 14.8544C130.003 15.093 129.934 15.3681 129.934 15.6797V20H127.816Z" fill="white"/>
</svg>
