<svg width="129" height="23" viewBox="0 0 129 23" fill="none" xmlns="http://www.w3.org/2000/svg">
<path d="M6.95455 22.1818V0.363635H8.35227V22.1818H6.95455ZM11.6591 6.90909C11.5568 6.04545 11.142 5.375 10.4148 4.89773C9.6875 4.42045 8.79545 4.18182 7.73864 4.18182C6.96591 4.18182 6.28977 4.30682 5.71023 4.55682C5.13636 4.80682 4.6875 5.15057 4.36364 5.58807C4.04545 6.02557 3.88636 6.52273 3.88636 7.07954C3.88636 7.54545 3.99716 7.94602 4.21875 8.28125C4.44602 8.6108 4.7358 8.88636 5.08807 9.10795C5.44034 9.32386 5.80966 9.50284 6.19602 9.64489C6.58239 9.78125 6.9375 9.89205 7.26136 9.97727L9.03409 10.4545C9.48864 10.5739 9.99432 10.7386 10.5511 10.9489C11.1136 11.1591 11.6506 11.446 12.1619 11.8097C12.679 12.1676 13.1051 12.6278 13.4403 13.1903C13.7756 13.7528 13.9432 14.4432 13.9432 15.2614C13.9432 16.2045 13.696 17.0568 13.2017 17.8182C12.7131 18.5795 11.9972 19.1847 11.054 19.6335C10.1165 20.0824 8.97727 20.3068 7.63636 20.3068C6.38636 20.3068 5.30398 20.1051 4.3892 19.7017C3.48011 19.2983 2.7642 18.7358 2.24148 18.0142C1.72443 17.2926 1.43182 16.4545 1.36364 15.5H3.54545C3.60227 16.1591 3.82386 16.7045 4.21023 17.1364C4.60227 17.5625 5.09659 17.8807 5.69318 18.0909C6.29545 18.2955 6.94318 18.3977 7.63636 18.3977C8.44318 18.3977 9.16761 18.267 9.80966 18.0057C10.4517 17.7386 10.9602 17.3693 11.3352 16.8977C11.7102 16.4205 11.8977 15.8636 11.8977 15.2273C11.8977 14.6477 11.7358 14.1761 11.4119 13.8125C11.0881 13.4489 10.6619 13.1534 10.1335 12.9261C9.60511 12.6989 9.03409 12.5 8.42045 12.3295L6.27273 11.7159C4.90909 11.3239 3.82955 10.7642 3.03409 10.0369C2.23864 9.30966 1.84091 8.35795 1.84091 7.18182C1.84091 6.20454 2.10511 5.35227 2.63352 4.625C3.16761 3.89205 3.88352 3.32386 4.78125 2.92045C5.68466 2.51136 6.69318 2.30682 7.80682 2.30682C8.93182 2.30682 9.93182 2.50852 10.8068 2.91193C11.6818 3.30966 12.375 3.85511 12.8864 4.54829C13.4034 5.24148 13.6761 6.02841 13.7045 6.90909H11.6591ZM22.9015 20V18.4659L28.6629 12.1591C29.339 11.4205 29.8958 10.7784 30.3333 10.233C30.7708 9.68182 31.0947 9.16477 31.3049 8.68182C31.5208 8.19318 31.6288 7.68182 31.6288 7.14773C31.6288 6.53409 31.4811 6.00284 31.1856 5.55398C30.8958 5.10511 30.4981 4.75852 29.9924 4.5142C29.4867 4.26989 28.9186 4.14773 28.2879 4.14773C27.6174 4.14773 27.0322 4.28693 26.5322 4.56534C26.0379 4.83807 25.6543 5.22159 25.3816 5.71591C25.1146 6.21023 24.9811 6.78977 24.9811 7.45454H22.9697C22.9697 6.43182 23.2055 5.53409 23.6771 4.76136C24.1487 3.98864 24.7907 3.38636 25.6032 2.95454C26.4214 2.52273 27.339 2.30682 28.3561 2.30682C29.3788 2.30682 30.285 2.52273 31.0748 2.95454C31.8646 3.38636 32.4839 3.96875 32.9328 4.7017C33.3816 5.43466 33.6061 6.25 33.6061 7.14773C33.6061 7.78977 33.4896 8.41761 33.2566 9.03125C33.0293 9.6392 32.6316 10.3182 32.0634 11.0682C31.5009 11.8125 30.7197 12.7216 29.7197 13.7955L25.7992 17.9886V18.125H33.9129V20H22.9015ZM42.5096 2.30682C43.2255 2.3125 43.9414 2.44886 44.6573 2.71591C45.3732 2.98295 46.0266 3.42614 46.6175 4.04545C47.2084 4.65909 47.6829 5.49716 48.0408 6.55966C48.3988 7.62216 48.5778 8.95455 48.5778 10.5568C48.5778 12.108 48.43 13.4858 48.1346 14.6903C47.8448 15.8892 47.4243 16.9006 46.8732 17.7244C46.3278 18.5483 45.663 19.1733 44.8789 19.5994C44.1005 20.0256 43.2198 20.2386 42.2368 20.2386C41.2596 20.2386 40.3874 20.0455 39.6204 19.6591C38.859 19.267 38.234 18.7244 37.7454 18.0312C37.2624 17.3324 36.9528 16.5227 36.8164 15.6023H38.8959C39.0834 16.4034 39.4556 17.0653 40.0124 17.5881C40.5749 18.1051 41.3164 18.3636 42.2368 18.3636C43.5834 18.3636 44.6459 17.7756 45.4243 16.5994C46.2084 15.4233 46.6005 13.7614 46.6005 11.6136H46.4641C46.1459 12.0909 45.7681 12.5028 45.3306 12.8494C44.8931 13.196 44.4073 13.4631 43.8732 13.6506C43.3391 13.8381 42.7709 13.9318 42.1687 13.9318C41.1687 13.9318 40.2511 13.6847 39.4158 13.1903C38.5863 12.6903 37.9215 12.0057 37.4215 11.1364C36.9272 10.2614 36.68 9.26136 36.68 8.13636C36.68 7.06818 36.9187 6.09091 37.3959 5.20454C37.8789 4.3125 38.555 3.60227 39.4243 3.07386C40.2993 2.54545 41.3278 2.28977 42.5096 2.30682ZM42.5096 4.18182C41.7937 4.18182 41.1488 4.3608 40.5749 4.71875C40.0067 5.07102 39.555 5.54829 39.2198 6.15057C38.8903 6.74716 38.7255 7.40909 38.7255 8.13636C38.7255 8.86364 38.8846 9.52557 39.2028 10.1222C39.5266 10.7131 39.967 11.1847 40.5238 11.5369C41.0863 11.8835 41.7255 12.0568 42.4414 12.0568C42.9812 12.0568 43.484 11.9517 43.9499 11.7415C44.4158 11.5256 44.8221 11.233 45.1687 10.8636C45.5209 10.4886 45.7965 10.0653 45.9954 9.59375C46.1942 9.11648 46.2937 8.61932 46.2937 8.10227C46.2937 7.42045 46.1289 6.78125 45.7993 6.18466C45.4755 5.58807 45.0266 5.10511 44.4528 4.73579C43.8846 4.36648 43.2368 4.18182 42.5096 4.18182ZM57.6539 1.72727L52.0289 22.625H50.188L55.813 1.72727H57.6539ZM59.5581 20V6.90909H61.5013V8.95455H61.6717C61.9445 8.25568 62.3848 7.71307 62.9928 7.3267C63.6007 6.93466 64.3308 6.73864 65.1831 6.73864C66.0467 6.73864 66.7655 6.93466 67.3393 7.3267C67.9189 7.71307 68.3706 8.25568 68.6945 8.95455H68.8308C69.166 8.27841 69.6689 7.74148 70.3393 7.34375C71.0098 6.94034 71.8138 6.73864 72.7513 6.73864C73.9217 6.73864 74.8791 7.10511 75.6234 7.83807C76.3678 8.56534 76.7399 9.69886 76.7399 11.2386V20H74.7285V11.2386C74.7285 10.2727 74.4643 9.58239 73.9359 9.16761C73.4075 8.75284 72.7854 8.54545 72.0695 8.54545C71.149 8.54545 70.4359 8.82386 69.9303 9.38068C69.4246 9.93182 69.1717 10.6307 69.1717 11.4773V20H67.1263V11.0341C67.1263 10.2898 66.8848 9.69034 66.4018 9.2358C65.9189 8.77557 65.2967 8.54545 64.5354 8.54545C64.0126 8.54545 63.524 8.68466 63.0695 8.96307C62.6206 9.24148 62.257 9.62784 61.9785 10.1222C61.7058 10.6108 61.5695 11.1761 61.5695 11.8182V20H59.5581ZM85.2557 20.2727C84.0738 20.2727 83.0369 19.9915 82.1449 19.429C81.2585 18.8665 80.5653 18.0795 80.0653 17.0682C79.571 16.0568 79.3238 14.875 79.3238 13.5227C79.3238 12.1591 79.571 10.9687 80.0653 9.9517C80.5653 8.93466 81.2585 8.14489 82.1449 7.58239C83.0369 7.01989 84.0738 6.73864 85.2557 6.73864C86.4375 6.73864 87.4716 7.01989 88.3579 7.58239C89.25 8.14489 89.9432 8.93466 90.4375 9.9517C90.9375 10.9687 91.1875 12.1591 91.1875 13.5227C91.1875 14.875 90.9375 16.0568 90.4375 17.0682C89.9432 18.0795 89.25 18.8665 88.3579 19.429C87.4716 19.9915 86.4375 20.2727 85.2557 20.2727ZM85.2557 18.4659C86.1534 18.4659 86.892 18.2358 87.4716 17.7756C88.0511 17.3153 88.4801 16.7102 88.7585 15.9602C89.0369 15.2102 89.1761 14.3977 89.1761 13.5227C89.1761 12.6477 89.0369 11.8324 88.7585 11.0767C88.4801 10.321 88.0511 9.71023 87.4716 9.24432C86.892 8.77841 86.1534 8.54545 85.2557 8.54545C84.3579 8.54545 83.6193 8.77841 83.0397 9.24432C82.4602 9.71023 82.0312 10.321 81.7528 11.0767C81.4744 11.8324 81.3352 12.6477 81.3352 13.5227C81.3352 14.3977 81.4744 15.2102 81.7528 15.9602C82.0312 16.7102 82.4602 17.3153 83.0397 17.7756C83.6193 18.2358 84.3579 18.4659 85.2557 18.4659ZM95.7891 12.125V20H93.7778V6.90909H95.721V8.95455H95.8914C96.1982 8.28977 96.6641 7.75568 97.2891 7.35227C97.9141 6.94318 98.721 6.73864 99.7096 6.73864C100.596 6.73864 101.372 6.92045 102.036 7.28409C102.701 7.64205 103.218 8.1875 103.587 8.92045C103.957 9.64773 104.141 10.5682 104.141 11.6818V20H102.13V11.8182C102.13 10.7898 101.863 9.98864 101.329 9.41477C100.795 8.83523 100.062 8.54545 99.1301 8.54545C98.488 8.54545 97.9141 8.68466 97.4085 8.96307C96.9085 9.24148 96.5136 9.64773 96.2238 10.1818C95.934 10.7159 95.7891 11.3636 95.7891 12.125ZM113.03 6.90909V8.61364H106.246V6.90909H113.03ZM108.223 3.77273H110.235V16.25C110.235 16.8182 110.317 17.2443 110.482 17.5284C110.652 17.8068 110.868 17.9943 111.129 18.0909C111.397 18.1818 111.678 18.2273 111.973 18.2273C112.195 18.2273 112.377 18.2159 112.519 18.1932C112.661 18.1648 112.774 18.142 112.86 18.125L113.269 19.9318C113.132 19.983 112.942 20.0341 112.698 20.0852C112.453 20.142 112.144 20.1705 111.769 20.1705C111.2 20.1705 110.644 20.0483 110.098 19.804C109.558 19.5597 109.11 19.1875 108.752 18.6875C108.399 18.1875 108.223 17.5568 108.223 16.7955V3.77273ZM117.868 12.125V20H115.857V2.54545H117.868V8.95455H118.039C118.345 8.27841 118.806 7.74148 119.419 7.34375C120.039 6.94034 120.863 6.73864 121.891 6.73864C122.783 6.73864 123.564 6.91761 124.235 7.27557C124.905 7.62784 125.425 8.17045 125.794 8.90341C126.169 9.63068 126.357 10.5568 126.357 11.6818V20H124.345V11.8182C124.345 10.7784 124.076 9.97443 123.536 9.40625C123.002 8.83239 122.26 8.54545 121.311 8.54545C120.652 8.54545 120.061 8.68466 119.539 8.96307C119.022 9.24148 118.613 9.64773 118.311 10.1818C118.016 10.7159 117.868 11.3636 117.868 12.125Z" fill="#B3B3B3"/>
<path d="M0 12.142H128.198V13.7784H0V12.142Z" fill="#B3B3B3"/>
</svg>
