<svg width="522" height="335" viewBox="0 0 522 335" fill="none" xmlns="http://www.w3.org/2000/svg">
<path fill-rule="evenodd" clip-rule="evenodd" d="M940.777 389.585C944.427 388.059 946.814 384.96 946.99 381.494C947.068 379.926 946.68 378.346 945.868 376.929L942.02 370.236C943.291 368.72 944.053 366.9 944.152 364.991C944.237 363.237 943.764 361.494 942.775 359.939L939.021 354.045C940.403 352.461 941.221 350.54 941.328 348.495L941.328 348.501C941.427 346.554 940.862 344.637 939.69 342.954L936.079 337.782C937.545 336.131 938.417 334.119 938.525 331.999L938.532 331.999C938.638 329.859 937.974 327.773 936.604 325.964L933.21 321.486C934.734 319.787 935.624 317.718 935.736 315.509C935.856 313.164 935.086 310.909 933.512 308.979L930.378 305.144C931.933 303.393 932.845 301.269 932.961 299.013C933.088 296.505 932.191 294.015 930.426 291.995L927.599 288.764C929.166 286.971 930.087 284.803 930.2 282.523C930.341 279.816 929.325 277.151 927.341 275.017L924.856 272.351C926.411 270.522 927.327 268.323 927.447 266.027C927.595 263.109 926.458 260.275 924.248 258.038L922.151 255.916C923.693 254.062 924.579 251.868 924.7 249.537L924.7 249.543C924.862 246.414 923.606 243.399 921.163 241.06L919.478 239.444C920.981 237.569 921.846 235.371 921.967 233.047C922.137 229.707 920.753 226.523 918.077 224.081L916.832 222.947C918.284 221.055 919.122 218.859 919.242 216.557C919.419 213.054 917.872 209.605 914.992 207.103L914.207 206.421C915.603 204.523 916.409 202.338 916.524 200.067C916.715 196.347 915.027 192.723 911.906 190.131L911.596 189.873C912.928 187.971 913.699 185.806 913.813 183.571L913.805 183.571C914.007 179.71 912.254 175.978 909.001 173.299C910.26 171.406 910.99 169.273 911.101 167.081C911.3 163.199 909.599 159.47 906.412 156.735C907.613 154.857 908.294 152.776 908.404 150.591C908.6 146.682 906.949 142.951 903.821 140.158C904.955 138.293 905.599 136.244 905.707 134.101L905.714 134.107C905.914 130.166 904.3 126.429 901.232 123.585C902.308 121.736 902.918 119.714 903.024 117.611L903.017 117.611C903.22 113.71 901.609 109.902 898.627 107.013C899.644 105.176 900.225 103.183 900.334 101.121L900.341 101.121C900.536 97.1962 898.965 93.377 896.03 90.4359C896.997 88.6167 897.549 86.6546 897.651 84.6305C897.855 80.6752 896.317 76.8527 893.429 73.867C894.349 72.0641 894.875 70.1287 894.975 68.1405L894.982 68.1405C895.184 64.1578 893.675 60.3183 890.829 57.2869C891.701 55.5036 892.2 53.6002 892.299 51.6504C892.504 47.6402 891.031 43.7879 888.231 40.7147C889.059 38.9491 889.536 37.072 889.637 35.1544L889.637 35.1604C889.933 29.2819 886.735 23.7711 881.079 20.4128L380.481 -276.927C376.097 -279.531 370.78 -280.532 365.513 -279.73C360.246 -278.934 355.663 -276.438 352.606 -272.7L3.59945 153.569C1.42477 156.228 0.189235 159.339 0.0198625 162.565C-0.283849 168.437 2.91464 173.954 8.57021 177.312L509.168 474.652C511.693 476.152 514.527 477.118 517.483 477.515C519.352 478.337 521.347 478.888 523.403 479.159C525.291 479.994 527.293 480.536 529.325 480.795C531.188 481.634 533.19 482.191 535.259 482.448C537.11 483.29 539.104 483.846 541.168 484.098C543.031 484.954 545.026 485.498 547.055 485.741C548.912 486.613 550.933 487.18 553.032 487.416C554.848 488.274 556.829 488.831 558.89 489.062C560.725 489.946 562.739 490.513 564.837 490.735C566.648 491.616 568.644 492.179 570.73 492.394C572.57 493.304 574.583 493.86 576.636 494.065C578.466 494.986 580.48 495.545 582.535 495.744C584.328 496.664 586.339 497.241 588.457 497.433C590.263 498.371 592.274 498.934 594.328 499.116C596.098 500.061 598.111 500.649 600.248 500.825C601.916 501.728 603.815 502.303 605.835 502.501C605.942 502.511 606.049 502.521 606.156 502.529C607.935 503.505 609.958 504.082 612.029 504.236C613.8 505.231 615.832 505.817 617.915 505.962C619.674 506.972 621.71 507.565 623.799 507.699C625.543 508.721 627.577 509.319 629.67 509.445C631.398 510.48 633.432 511.086 635.529 511.203C638.75 513.18 643.114 513.625 646.921 512.039L940.777 389.585ZM638.486 511.04C640.901 511.869 643.704 511.857 646.222 510.809L940.064 388.355C943.192 387.052 945.232 384.4 945.38 381.433C945.451 380.095 945.119 378.744 944.42 377.532L940.889 371.388C940.104 372.074 939.196 372.664 938.186 373.131L641.703 510.049C640.669 510.527 639.585 510.854 638.486 511.04ZM940.14 370.084C939.384 370.818 938.468 371.445 937.416 371.931L640.948 508.856C639.41 509.564 637.747 509.886 636.112 509.863C635.636 509.54 635.194 509.176 634.793 508.774C635.37 508.58 635.936 508.344 636.485 508.066L933.145 357.913L940.14 370.084ZM941.209 368.824C942.007 367.667 942.476 366.34 942.549 364.931C942.627 363.424 942.217 361.923 941.37 360.584L937.906 355.145C937.221 355.728 936.444 356.244 935.588 356.677L934.534 357.21L941.209 368.824ZM933.828 355.983L934.768 355.507C935.65 355.062 936.434 354.514 937.104 353.886L929.592 342.091L926.743 343.657L933.828 355.983ZM926.037 342.428L928.829 340.893L921.341 329.137L919.145 330.438L926.037 342.428ZM917.81 331.23L924.675 343.176L631.816 504.154L630.325 501.561L917.81 331.23ZM918.433 329.199L920.573 327.931L913.305 316.52L911.723 317.524L918.433 329.199ZM910.411 318.357L917.097 329.99L629.611 500.319L628.018 497.546L910.411 318.357ZM911.006 316.277L912.533 315.308L905.464 304.209L904.46 304.888L911.006 316.277ZM903.171 305.759L909.694 317.109L627.301 496.299L625.61 493.356L903.171 305.759ZM903.739 303.635L904.689 302.993L897.805 292.184L897.346 292.512L903.739 303.635ZM896.08 293.42L902.451 304.505L624.89 492.103L623.112 489.011L896.08 293.42ZM896.621 291.25L897.025 290.96L891.17 281.767L896.621 291.25ZM889.124 281.317L895.354 292.157L622.385 487.746L620.528 484.515L889.124 281.317ZM882.299 269.441L888.396 280.049L619.801 483.25L617.865 479.881L882.299 269.441ZM875.595 257.775L881.565 268.164L617.128 478.598L615.131 475.125L875.595 257.775ZM872.871 253.037L874.851 256.482L614.386 473.828L612.325 470.241L868.727 246.53L872.871 253.037ZM852.38 217.382L853.95 220.113L851.341 216.376L849.888 214.094L852.38 217.382ZM853.731 216.63L850.938 211.771L851.602 211.118L858.499 219.559L857.015 220.964L853.731 216.63ZM862.919 232.616L859.756 227.114L863.516 232.073L862.919 232.616ZM864.051 234.585L863.674 233.929L864.413 233.257L871.294 242.335L870.154 243.329L864.051 234.585ZM874.344 252.494L872.74 249.703L876.507 255.1L876.179 255.374L874.344 252.494ZM850.174 210.442L848.093 206.822L850.66 209.964L850.174 210.442ZM843.579 202.069L846.358 206.904L843.079 202.578L843.579 202.069ZM842.084 199.466L842.808 200.726L842.169 201.377L839.788 198.236L836.232 192.652L836.385 192.491L842.084 199.466ZM843.447 198.739L844.043 199.468L845.857 197.62L838.978 189.758L838.547 190.213L843.447 198.739ZM837.769 188.861L837.99 188.628L836.958 187.45L837.769 188.861ZM831.769 181.519L836.66 190.029L836.484 190.215L830.018 182.302L831.266 180.944L831.769 181.519ZM833.127 180.784L832.467 179.636L834.423 177.508L841.419 185.015L839.031 187.531L833.127 180.784ZM831.681 178.269L826.456 169.177L826.555 169.065L833.394 176.404L831.681 178.269ZM825.374 170.391L827.939 174.854L824.698 171.15L825.374 170.391ZM821.486 163.625L824.584 169.017L823.7 170.009L817.238 162.623L818.833 160.779L821.486 163.625ZM822.835 162.877L820.513 158.838L822.215 156.87L829.151 163.891L826.526 166.838L822.835 162.877ZM819.719 157.456L815.441 150.014L821.154 155.797L819.719 157.456ZM813.577 149.865L818.194 157.898L812.216 151.483L813.577 149.865ZM811.19 145.711L812.778 148.475L811.182 150.373L805.253 144.012L804.834 143.353L806.659 141.125L811.19 145.711ZM812.536 144.959L814.264 146.709L817.096 143.342L810.231 136.761L808.817 138.489L812.536 144.959ZM807.773 139.765L808.286 140.657L807.605 139.969L807.773 139.765ZM808.009 137.084L809.134 135.71L804.868 131.619L808.009 137.084ZM800.911 127.826L806.965 138.359L806.535 138.885L793.739 125.933L791.685 122.708C793.41 122.656 795.116 123.007 796.614 123.706L800.911 127.826ZM802.237 127.041L802.008 126.642C801.011 124.905 799.469 123.544 797.642 122.637L782.227 107.857L781.941 107.409C780.983 105.906 779.626 104.703 778.042 103.845L762.19 88.647L761.861 88.1757C760.97 86.897 759.794 85.8489 758.443 85.0549L742.18 69.4623L741.795 68.9545C740.987 67.8888 739.987 66.9923 738.857 66.2767L722.114 50.2244L721.707 49.727C721.01 48.8727 720.191 48.1325 719.284 47.5115L702.178 31.1109L701.648 30.5057C701.06 29.8352 700.399 29.2381 699.68 28.7169L682.088 11.8502L681.561 11.2845C681.124 10.8171 680.653 10.3871 680.153 9.99491L664.155 -5.34301L813.315 130.603L810.077 134.558L802.237 127.041ZM794.37 121.554C793.223 121.343 792.034 121.285 790.847 121.392L785.588 113.135L794.37 121.554ZM787.813 122.048L779.944 114.084L786.012 122.777L787.152 122.301C787.37 122.21 787.591 122.126 787.813 122.048ZM784.144 123.555L778.984 118.018L783.412 123.86L784.144 123.555ZM784.321 124.999L785.163 124.648L786.321 125.891L791.134 132.786L784.321 124.999ZM781.103 124.822L766.167 106.54L765.315 105.566L470.737 241.608C467.673 243.025 465.76 245.636 465.604 248.608L465.611 248.608C465.534 250.116 465.943 251.617 466.791 252.949L574.575 422.189L579.474 416.206L488.205 257.405C487.393 255.988 487.005 254.409 487.083 252.847C487.259 249.38 489.639 246.275 493.303 244.756L781.103 124.822ZM580.529 414.918L489.66 256.808C488.961 255.596 488.622 254.246 488.692 252.907L488.685 252.901C488.841 249.935 490.881 247.282 494.009 245.974L782.028 125.955L796.612 143.806L799.445 147.544L580.529 414.918ZM580.283 417.613L575.433 423.537L578.011 427.585L582.766 421.933L580.283 417.613ZM583.832 420.665L581.338 416.325L800.386 148.786L806.136 156.372L583.832 420.665ZM583.565 423.323L578.86 428.917L581.406 432.915L586.016 427.587L583.565 423.323ZM587.094 426.34L584.631 422.055L807.069 157.603L812.917 165.318L587.094 426.34ZM586.81 428.969L582.25 434.239L584.761 438.182L589.225 433.172L586.81 428.969ZM590.316 431.947L587.888 427.722L813.846 166.544L819.795 174.392L590.316 431.947ZM590.017 434.55L585.603 439.504L588.079 443.393L592.398 438.692L590.017 434.55ZM593.502 437.49L591.108 433.325L820.721 175.614L824.584 180.71L826.68 183.712L593.502 437.49ZM593.181 440.055L588.912 444.701L591.351 448.53L595.524 444.132L593.181 440.055ZM596.642 442.954L594.285 438.853L827.561 184.976L833.45 193.412L596.642 442.954ZM596.302 445.485L592.179 449.83L594.571 453.586L598.599 449.482L596.302 445.485ZM599.732 448.329L597.42 444.307L834.323 194.664L840.322 203.258L599.732 448.329ZM599.374 450.831L595.397 454.882L597.747 458.573L601.631 454.756L599.374 450.831ZM602.777 453.629L600.506 449.677L841.191 204.502L847.305 213.262L602.777 453.629ZM602.396 456.089L598.564 459.856L600.87 463.476L604.608 459.937L602.396 456.089ZM605.771 458.837L603.543 454.961L848.166 214.496L849.969 217.079L854.163 223.664L605.771 458.837ZM605.365 461.254L601.678 464.745L603.931 468.282L607.525 465.012L605.365 461.254ZM608.703 463.939L606.528 460.154L854.973 224.936L860.986 234.375L608.703 463.939ZM608.278 466.322L604.735 469.545L606.932 472.995L610.383 469.984L608.278 466.322ZM611.578 468.941L609.456 465.249L861.792 235.642L867.926 245.273L611.578 468.941ZM611.129 471.283L607.731 474.249L609.865 477.6L613.173 474.84L611.129 471.283ZM613.919 476.137L610.663 478.853L612.729 482.098L615.896 479.577L613.919 476.137ZM616.634 480.861L613.52 483.339L615.524 486.486L618.551 484.196L616.634 480.861ZM619.278 485.461L616.304 487.71L618.225 490.727L621.114 488.656L619.278 485.461ZM621.842 489.922L619.006 491.953L620.843 494.838L623.597 492.977L621.842 489.922ZM624.318 494.23L621.618 496.054L623.365 498.797L625.986 497.133L624.318 494.23ZM626.703 498.381L624.137 500.009L625.78 502.589L628.273 501.112L626.703 498.381ZM628.987 502.354L626.55 503.798L627.624 505.485C627.722 505.638 627.824 505.788 627.931 505.933C628.78 505.699 629.608 505.368 630.392 504.937L630.452 504.904L628.987 502.354ZM631.163 506.139C630.448 506.524 629.704 506.836 628.941 507.079C629.338 507.457 629.771 507.799 630.233 508.104C630.897 508.119 631.565 508.078 632.228 507.98C632.17 507.887 632.113 507.793 632.058 507.698L631.163 506.139ZM633.838 507.624C634.463 507.437 635.075 507.195 635.666 506.896L932.44 356.686L925.382 344.405L632.526 505.39L633.506 507.095C633.61 507.276 633.72 507.452 633.838 507.624ZM633.145 509.211C632.997 509.24 632.849 509.267 632.7 509.291C632.933 509.369 633.17 509.438 633.41 509.5C633.32 509.406 633.232 509.309 633.145 509.211ZM786.832 123.953L787.858 123.525C788.202 123.382 788.551 123.258 788.904 123.153L792.399 126.691L799.498 137.836L787.646 125.119L786.832 123.953ZM939.732 348.435C939.654 349.978 939.102 351.442 938.166 352.701L930.937 341.351L932.989 340.223C933.712 339.827 934.375 339.37 934.973 338.862L938.313 343.648C939.33 345.101 939.817 346.753 939.732 348.435ZM932.121 339.084L930.174 340.154L922.66 328.356L926.183 326.269L934.125 337.648C933.536 338.191 932.864 338.674 932.121 339.084ZM925.362 325.094L921.892 327.15L914.599 315.699L917.514 313.85L925.362 325.094ZM916.691 312.67L913.827 314.487L906.734 303.35L909.079 301.765L916.691 312.67ZM908.254 300.583L905.96 302.134L899.053 291.289L900.862 289.993L908.254 300.583ZM900.033 288.805L898.274 290.066L891.539 279.491L892.843 278.504L900.033 288.805ZM892.012 277.313L890.757 278.263L884.183 267.941L885.011 267.282L892.012 277.313ZM884.176 266.086L883.396 266.706L876.975 256.624L877.352 256.309L884.176 266.086ZM827.883 182.403L826.962 180.956L824.61 178.077L825.793 179.773L827.83 182.46L827.883 182.403ZM823.438 172.564L828.301 180.2L829.057 181.125L830.27 179.805L823.688 172.283L823.438 172.564ZM835.224 191.069L835.404 191.353L835.432 191.324L835.224 191.069ZM822.11 170.479L822.599 171.246L822.691 171.143L822.11 170.479ZM820.039 170.087L816.113 163.923L815.542 164.583L820.039 170.087ZM817.802 159.672L816.319 161.386L810.962 152.975L811.246 152.637L817.802 159.672ZM810.059 154.417L809.925 154.207L809.901 154.236L810.059 154.417ZM810.211 151.527L810.114 151.643L809.669 150.946L810.211 151.527ZM809.077 152.876L803.914 144.77L803.787 144.633L802.68 145.984L808.897 153.089L809.077 152.876ZM797.528 131.882L803.977 142.008L805.588 140.041L797.528 131.882ZM788.609 120.74L780.906 108.646L776.996 104.898C775.692 104.225 774.219 103.817 772.702 103.709L774.915 106.879L788.609 120.74ZM771.731 102.316C772.699 102.306 773.661 102.4 774.594 102.594L766.526 94.8592L771.731 102.316ZM763.008 96.9405L768.699 102.701C768.335 102.792 767.974 102.898 767.617 103.021L763.008 96.9405ZM747.653 85.3795L764.348 104.461L469.975 240.409C466.473 242.031 464.185 245.148 464.009 248.548C463.917 250.303 464.39 252.045 465.378 253.601L573.549 423.443L569.26 428.681L443.921 249.103C442.904 247.65 442.417 245.992 442.502 244.316L442.502 244.322C442.65 241.385 444.5 238.745 447.459 237.249L746.561 85.8604C746.918 85.6794 747.282 85.5193 747.653 85.3795ZM570.163 429.974L574.407 424.79L576.973 428.819L572.811 433.768L570.163 429.974ZM573.703 435.047L577.822 430.151L580.355 434.129L576.319 438.795L573.703 435.047ZM577.207 440.068L581.199 435.454L583.697 439.376L579.787 443.764L577.207 440.068ZM580.675 445.036L584.539 440.698L587.002 444.565L583.22 448.681L580.675 445.036ZM584.098 449.94L587.835 445.873L590.259 449.68L586.604 453.531L584.098 449.94ZM587.478 454.783L591.087 450.98L593.465 454.713L589.937 458.306L587.478 454.783ZM590.809 459.556L594.291 456.009L596.626 459.676L593.226 463.018L590.809 459.556ZM594.089 464.255L597.443 460.958L599.732 464.554L596.46 467.652L594.089 464.255ZM597.315 468.876L600.54 465.822L602.776 469.333L599.631 472.195L597.315 468.876ZM600.482 473.415L603.581 470.596L605.76 474.017L602.741 476.651L600.482 473.415ZM603.588 477.864L606.559 475.272L608.674 478.594L605.782 481.007L603.588 477.864ZM606.628 482.22L609.473 479.847L611.519 483.061L608.752 485.263L606.628 482.22ZM609.591 486.466L612.31 484.302L614.294 487.417L611.651 489.416L609.591 486.466ZM612.48 490.604L615.074 488.641L616.973 491.624L614.452 493.43L612.48 490.604ZM615.283 494.621L617.754 492.85L619.569 495.699L617.169 497.322L615.283 494.621ZM617.994 498.504L620.344 496.916L622.066 499.621L619.865 501.018C619.838 501.035 619.811 501.052 619.784 501.069L617.994 498.504ZM620.818 502.115L622.838 500.833L624.442 503.351C623.666 503.741 622.853 504.04 622.021 504.251C621.925 504.129 621.832 504.003 621.743 503.876L620.606 502.247C620.677 502.203 620.748 502.16 620.818 502.115ZM623.086 505.392C623.812 505.173 624.523 504.894 625.208 504.553L626.212 506.13C626.24 506.175 626.269 506.219 626.298 506.263C625.653 506.347 625.003 506.379 624.358 506.361C623.907 506.072 623.481 505.748 623.086 505.392ZM626.923 507.557C627.037 507.538 627.15 507.519 627.264 507.498C627.331 507.572 627.4 507.644 627.47 507.716C627.286 507.667 627.103 507.614 626.923 507.557ZM769.845 103.861C769.393 103.943 768.945 104.053 768.504 104.191L770.074 106.263L780.219 117.149L773.591 107.653L769.845 103.861ZM935.184 336.499C936.223 335.16 936.838 333.588 936.922 331.945C937.014 330.088 936.435 328.279 935.249 326.712L932.103 322.562C931.582 323.003 931.01 323.41 930.391 323.775L927.499 325.489L935.184 336.499ZM926.679 324.313L929.48 322.654C930.116 322.277 930.694 321.852 931.211 321.384L922.906 310.428L918.804 313.031L926.679 324.313ZM917.981 311.851L922.035 309.279L913.88 298.52L910.344 300.91L917.981 311.851ZM909.519 299.728L913.008 297.37L905.11 286.949L902.103 289.104L909.519 299.728ZM901.274 287.916L904.235 285.795L896.571 275.684L894.062 277.582L901.274 287.916ZM893.231 276.391L895.694 274.527L888.249 264.705L886.208 266.33L893.231 276.391ZM885.373 265.133L887.37 263.544L880.129 253.992L878.528 255.327L885.373 265.133ZM877.684 254.118L879.24 252.819L872.186 243.512L871.002 244.545L877.684 254.118ZM799.033 144.103L800.335 145.968L798.055 143.178L796.964 141.739L799.033 144.103ZM813.131 161.632L808.845 155.491L808.919 155.403L815.243 162.63L814.576 163.4L813.131 161.632ZM800.352 143.323L793.748 133.861L802.744 143.514L801.669 144.828L800.352 143.323ZM760.889 89.4545L768.561 100.447L756.119 87.853L753.829 84.8307C755.092 85.0564 756.304 85.4854 757.391 86.1015L760.889 89.4545ZM754.805 83.6224C754.109 83.4627 753.395 83.357 752.674 83.3077L747.88 76.9824L754.805 83.6224ZM749.661 83.4315L747.244 80.9848L749.293 83.4929C749.361 83.4806 749.429 83.4689 749.496 83.4577C749.551 83.4486 749.606 83.4399 749.661 83.4315ZM746.669 84.2551L733.601 69.3192L730.211 65.6811C728.722 65.849 727.252 66.2925 725.908 67.0312L424.18 232.884C421.32 234.458 419.527 237.123 419.378 240.023L419.378 240.017C419.28 241.874 419.859 243.683 421.052 245.256L564.494 434.502L568.256 429.908L442.544 249.796C441.372 248.114 440.8 246.197 440.899 244.249C441.076 240.861 443.222 237.798 446.64 236.068L745.742 84.6787C746.046 84.5244 746.356 84.3833 746.669 84.2551ZM569.158 431.201L565.437 435.746L568.143 439.317L571.794 434.977L569.158 431.201ZM572.686 436.256L569.077 440.548L571.751 444.076L575.289 439.985L572.686 436.256ZM576.177 441.258L572.679 445.301L575.317 448.781L578.744 444.935L576.177 441.258ZM579.631 446.207L576.246 450.006L578.848 453.439L582.162 449.832L579.631 446.207ZM583.041 451.091L579.768 454.653L582.331 458.034L585.532 454.661L583.041 451.091ZM586.406 455.913L583.247 459.243L585.761 462.56L588.85 459.414L586.406 455.913ZM589.722 460.663L586.676 463.766L589.147 467.027L592.122 464.103L589.722 460.663ZM592.986 465.34L590.053 468.222L592.478 471.422L595.34 468.712L592.986 465.34ZM596.194 469.937L593.375 472.606L595.744 475.731L598.493 473.23L596.194 469.937ZM599.344 474.45L596.639 476.912L598.949 479.96L601.585 477.66L599.344 474.45ZM602.431 478.873L599.84 481.134L602.083 484.094L604.606 481.989L602.431 478.873ZM605.452 483.201L602.974 485.27L605.145 488.133L607.556 486.215L605.452 483.201ZM608.395 487.418L606.029 489.3L608.134 492.077L610.433 490.337L608.395 487.418ZM611.262 491.525L609.008 493.23L611.022 495.887L613.212 494.319L611.262 491.525ZM614.043 495.51L611.9 497.045L613.801 499.554C614.071 499.401 614.334 499.238 614.591 499.064L615.904 498.176L614.043 495.51ZM616.729 499.359L615.586 500.131C615.288 500.333 614.982 500.522 614.669 500.699L615.861 502.272C615.94 502.376 616.021 502.478 616.104 502.578C616.9 502.394 617.68 502.133 618.429 501.793L616.729 499.359ZM619.249 502.968C618.592 503.271 617.914 503.52 617.222 503.716C617.61 504.05 618.024 504.353 618.459 504.626C619.09 504.649 619.725 504.625 620.356 504.554L619.249 502.968ZM621.371 505.794C621.288 505.807 621.206 505.821 621.124 505.833C621.255 505.873 621.388 505.911 621.521 505.947C621.47 505.897 621.42 505.845 621.371 505.794ZM750.306 84.7318C750.5 84.7081 750.695 84.6894 750.89 84.6755L754.767 88.5994L759.797 95.2351L752.418 87.317L750.306 84.7318ZM934.133 315.449C934.044 317.203 933.393 318.854 932.276 320.254L924.204 309.605L927.793 307.327C928.33 306.986 928.83 306.614 929.292 306.214L932.191 309.763C933.568 311.445 934.239 313.411 934.133 315.449ZM926.839 306.23L923.333 308.455L915.151 297.661L919.76 294.547L928.359 305.072C927.899 305.492 927.391 305.88 926.839 306.23ZM918.844 293.425L914.279 296.511L906.355 286.057L910.436 283.133L918.844 293.425ZM909.518 282.009L905.48 284.902L897.792 274.76L901.379 272.047L909.518 282.009ZM900.46 270.922L896.916 273.603L889.448 263.751L892.571 261.266L900.46 270.922ZM891.65 260.138L888.568 262.591L881.306 253.01L883.994 250.767L891.65 260.138ZM883.064 249.628L880.417 251.837L873.342 242.503L875.62 240.516L883.064 249.628ZM874.687 239.374L872.45 241.326L865.55 232.223L867.439 230.503L874.687 239.374ZM866.502 229.356L864.652 231.039L857.915 222.151L859.438 220.709L866.502 229.356ZM769.628 108.205L768.705 106.988L766.948 105.103L767.441 105.706L769.628 108.205ZM747.879 79.5117L740.862 70.2547L737.8 67.3182C736.965 66.8017 736.052 66.3973 735.093 66.1113L737.256 68.7585L747.879 79.5117ZM733.686 64.389C734.136 64.4555 734.581 64.5434 735.019 64.6524L729.861 59.7071L733.686 64.389ZM712.405 46.574L729.075 64.4617C727.68 64.715 726.315 65.1836 725.047 65.8796L423.318 231.739C420.021 233.547 417.952 236.622 417.783 239.962C417.67 242.103 418.341 244.189 419.71 245.998L563.507 435.707L560.207 439.738L398.175 241.409C396.806 239.733 396.135 237.762 396.241 235.724L396.241 235.73C396.389 232.812 398.084 230.183 400.894 228.519L705.249 48.1956C707.421 46.9092 709.956 46.3914 712.405 46.574ZM561.186 440.938L564.45 436.951L567.144 440.505L563.942 444.311L561.186 440.938ZM564.912 445.498L568.077 441.736L570.738 445.246L567.636 448.832L564.912 445.498ZM568.602 450.014L571.667 446.472L574.291 449.933L571.288 453.303L568.602 450.014ZM572.255 454.486L575.219 451.159L577.807 454.572L574.905 457.73L572.255 454.486ZM575.863 458.902L578.727 455.786L581.275 459.147L578.474 462.098L575.863 458.902ZM579.428 463.266L582.19 460.356L584.689 463.652L581.99 466.401L579.428 463.266ZM582.943 467.568L585.603 464.858L588.058 468.097L585.461 470.65L582.943 467.568ZM586.406 471.807L588.964 469.293L591.372 472.469L588.877 474.831L586.406 471.807ZM589.814 475.978L592.27 473.653L594.62 476.754L592.227 478.932L589.814 475.978ZM593.162 480.076L595.515 477.935L597.806 480.957L595.515 482.956L593.162 480.076ZM596.445 484.095L598.696 482.131L600.92 485.065L598.73 486.892L596.445 484.095ZM599.662 488.033L601.811 486.24L603.96 489.076L601.872 490.738L599.662 488.033ZM602.798 491.872L604.845 490.243L606.927 492.99L604.94 494.493L602.798 491.872ZM605.856 495.614L607.801 494.143L609.791 496.769L609.323 497.105C608.847 497.446 608.346 497.753 607.825 498.024L605.856 495.614ZM610.361 498.148L610.669 497.927L612.414 500.23C611.702 500.523 610.959 500.753 610.194 500.916C610.122 500.832 610.05 500.748 609.98 500.662L608.741 499.146C609.304 498.849 609.845 498.516 610.361 498.148ZM611.368 502.051C612.026 501.872 612.668 501.649 613.289 501.383L614.404 502.854C613.793 502.912 613.179 502.928 612.569 502.901C612.149 502.645 611.747 502.361 611.368 502.051ZM615.336 504.12C615.356 504.117 615.377 504.114 615.397 504.111C615.422 504.107 615.447 504.103 615.471 504.099L615.494 504.122L615.516 504.144C615.529 504.157 615.542 504.17 615.555 504.182C615.507 504.169 615.46 504.156 615.412 504.142C615.387 504.135 615.361 504.127 615.336 504.12ZM929.408 303.957C930.584 302.497 931.272 300.773 931.365 298.953C931.478 296.758 930.687 294.582 929.141 292.809L926.538 289.833C926.121 290.203 925.673 290.551 925.194 290.874L921.023 293.693L929.408 303.957ZM920.107 292.572L924.199 289.806C924.691 289.474 925.147 289.11 925.564 288.721L916.73 278.623L911.672 282.247L920.107 292.572ZM910.754 281.123L915.771 277.528L907.153 267.678L902.59 271.131L910.754 281.123ZM901.671 270.006L906.195 266.583L897.86 257.057L893.758 260.321L901.671 270.006ZM892.837 259.193L896.9 255.96L888.827 246.733L885.159 249.794L892.837 259.193ZM884.229 248.656L887.86 245.627L880.025 236.673L876.763 239.519L884.229 248.656ZM875.83 238.376L879.055 235.563L871.441 226.862L868.563 229.481L875.83 238.376ZM867.625 228.334L870.467 225.748L863.059 217.281L860.542 219.663L867.625 228.334ZM859.603 218.514L862.083 216.166L854.862 207.913L852.688 210.05L859.603 218.514ZM851.746 208.896L853.884 206.795L846.842 198.746L844.992 200.63L851.746 208.896ZM735.952 69.5545L736.575 70.3168L735.011 68.639L734.729 68.3172L735.952 69.5545ZM720.847 51.0649L725.964 57.3283L718.547 49.8213L716.656 47.6595C717.19 47.9059 717.703 48.1919 718.188 48.5164L720.847 51.0649ZM715.21 45.661C715.081 45.6266 714.952 45.5939 714.822 45.5631L713.332 43.8605L715.21 45.661ZM711.1 45.1734L698.379 31.5235L694.836 27.9369C691.473 27 687.643 27.4204 684.597 29.3542L377.615 224.148C374.89 225.878 373.244 228.531 373.096 231.425L373.089 231.425C372.976 233.62 373.767 235.802 375.306 237.569L556.337 444.465L559.231 440.93L396.862 242.187C395.288 240.258 394.518 238.003 394.638 235.664C394.807 232.317 396.756 229.303 399.976 227.391L704.338 47.0681C706.403 45.8448 708.755 45.2282 711.1 45.1734ZM560.211 442.129L557.35 445.623L560.149 448.821L562.954 445.486L560.211 442.129ZM563.924 446.674L561.153 449.968L563.918 453.129L566.634 449.99L563.924 446.674ZM567.6 451.173L564.918 454.272L567.647 457.39L570.272 454.444L567.6 451.173ZM571.238 455.627L568.648 458.534L571.34 461.611L573.874 458.853L571.238 455.627ZM574.832 460.025L572.332 462.745L574.984 465.776L577.427 463.202L574.832 460.025ZM578.381 464.37L575.974 466.907L578.575 469.88L580.926 467.485L578.381 464.37ZM581.88 468.652L579.564 471.01L582.122 473.933L584.38 471.713L581.88 468.652ZM585.326 472.87L583.103 475.055L585.612 477.922L587.778 475.872L585.326 472.87ZM588.715 477.018L586.585 479.035L589.036 481.835L591.109 479.949L588.715 477.018ZM592.044 481.093L590.008 482.946L592.397 485.677L594.377 483.949L592.044 481.093ZM595.308 485.088L593.365 486.783L595.684 489.434L597.571 487.859L595.308 485.088ZM598.504 489L596.655 490.543L598.897 493.105L600.691 491.677L598.504 489ZM601.618 492.811L599.897 494.18L599.862 494.208L601.857 496.488C602.509 496.179 603.137 495.816 603.731 495.398L601.618 492.811ZM604.644 496.515C604.06 496.918 603.449 497.274 602.817 497.585L604.105 499.058C604.163 499.124 604.222 499.19 604.282 499.254C605.007 499.113 605.714 498.914 606.395 498.659L604.644 496.515ZM607.325 499.798C606.737 500.031 606.131 500.229 605.512 500.388C605.886 500.681 606.28 500.95 606.691 501.193C607.28 501.223 607.866 501.214 608.445 501.169L607.325 499.798ZM609.572 502.421L609.569 502.421L609.574 502.422L609.572 502.421ZM928.598 282.463C928.502 284.328 927.796 286.106 926.592 287.613L917.957 277.744L922.596 274.42C923.028 274.111 923.435 273.781 923.815 273.432L926.084 275.867C927.828 277.742 928.718 280.081 928.598 282.463ZM921.565 273.377L916.999 276.648L908.356 266.769L913.781 262.665L922.804 272.348C922.423 272.714 922.009 273.058 921.565 273.377ZM912.786 261.597L907.397 265.674L899.038 256.119L904.001 252.17L912.786 261.597ZM903.005 251.102L898.079 255.022L889.983 245.769L894.513 241.989L903.005 251.102ZM893.509 240.912L889.015 244.663L881.159 235.683L885.283 232.085L893.509 240.912ZM884.278 231.006L880.188 234.574L872.554 225.849L876.298 222.443L884.278 231.006ZM875.289 221.36L871.58 224.735L864.152 216.245L867.537 213.041L875.289 221.36ZM866.527 211.958L863.177 215.13L855.938 206.856L858.983 203.863L866.527 211.958ZM857.971 202.777L854.959 205.738L847.899 197.668L850.624 194.893L857.971 202.777ZM849.607 193.801L846.915 196.543L840.019 188.662L842.44 186.111L849.607 193.801ZM701.012 32.0711L700.888 31.9298L700.586 31.6403L701.012 32.0711ZM676.669 9.54807L693.135 26.2149C689.892 25.8241 686.476 26.4767 683.65 28.2689L376.669 223.056C373.555 225.034 371.67 228.061 371.5 231.371C371.366 233.873 372.27 236.369 374.035 238.383L555.373 445.642L552.832 448.746L352.451 233.728C350.707 231.859 349.817 229.514 349.937 227.132L349.93 227.132C350.079 224.256 351.681 221.579 354.329 219.789L663.937 10.5308C667.68 7.99839 672.698 7.74842 676.669 9.54807ZM553.876 449.867L556.386 446.8L559.171 449.984L556.711 452.909L553.876 449.867ZM557.746 454.019L560.175 451.131L562.926 454.275L560.547 457.025L557.746 454.019ZM561.579 458.132L563.927 455.418L566.64 458.52L564.343 461.098L561.579 458.132ZM565.376 462.207L567.641 459.664L570.318 462.723L568.103 465.133L565.376 462.207ZM569.128 466.233L571.31 463.857L573.946 466.87L571.815 469.116L569.128 466.233ZM572.837 470.212L574.935 468.001L577.52 470.955L575.472 473.04L572.837 470.212ZM576.494 474.137L578.509 472.085L581.049 474.988L579.085 476.918L576.494 474.137ZM580.1 478.006L582.03 476.109L584.52 478.956L582.642 480.734L580.1 478.006ZM583.649 481.815L585.493 480.068L587.925 482.847L586.131 484.478L583.649 481.815ZM587.137 485.558L588.896 483.957L591.265 486.665L589.557 488.155L587.137 485.558ZM590.56 489.23L592.233 487.771L594.53 490.397L593.536 491.226C593.326 491.402 593.11 491.57 592.891 491.731L590.56 489.23ZM594.665 492.203L595.501 491.506L597.671 493.986C597.101 494.347 596.502 494.665 595.879 494.938L593.891 492.805C594.156 492.614 594.414 492.413 594.665 492.203ZM596.892 496.026C597.494 495.748 598.074 495.433 598.629 495.081L600.38 497.083C599.721 497.304 599.045 497.475 598.36 497.597C598.314 497.55 598.269 497.502 598.224 497.454L596.892 496.026ZM599.639 498.727C600.223 498.587 600.799 498.413 601.363 498.206L602.482 499.485C601.923 499.52 601.358 499.522 600.789 499.491C600.388 499.258 600.004 499.003 599.639 498.727ZM923.815 271.233C925.031 269.682 925.746 267.86 925.844 265.967C925.978 263.392 924.975 260.89 923.027 258.913L921.135 256.998C920.776 257.338 920.392 257.663 919.984 257.972L914.982 261.756L923.815 271.233ZM913.987 260.688L918.924 256.953C919.344 256.636 919.734 256.299 920.094 255.944L910.923 246.661L905.177 251.234L913.987 260.688ZM904.181 250.166L909.894 245.62L900.977 236.594L895.665 241.027L904.181 250.166ZM894.662 239.951L899.941 235.545L891.319 226.818L886.413 231.099L894.662 239.951ZM885.407 230.02L890.281 225.768L881.932 217.316L877.406 221.434L885.407 230.02ZM876.397 220.352L880.891 216.263L872.792 208.065L868.624 212.012L876.397 220.352ZM867.615 210.928L871.752 207.012L863.882 199.046L860.051 202.812L867.615 210.928ZM859.04 201.727L862.84 197.991L855.187 190.245L851.674 193.823L859.04 201.727ZM850.657 192.732L854.139 189.184L846.684 181.638L843.472 185.023L850.657 192.732ZM842.451 183.927L845.633 180.574L838.365 173.218L835.439 176.402L842.451 183.927ZM834.41 175.299L837.307 172.146L830.21 164.963L827.555 167.943L834.41 175.299ZM674.536 7.3888C670.639 6.52314 666.329 7.16889 662.942 9.45759L353.326 218.721C350.319 220.753 348.497 223.798 348.327 227.072C348.186 229.779 349.203 232.444 351.187 234.572L551.873 449.917L549.645 452.637L329.582 229.882C327.633 227.91 326.63 225.402 326.764 222.827L326.764 222.821C326.906 219.957 328.466 217.256 331.043 215.411L643.278 -8.31048C648.039 -11.7213 655.024 -11.4457 659.406 -7.84008L660.998 -6.31371L674.536 7.3888ZM552.917 451.037L550.718 453.723L553.585 456.625L555.739 454.065L552.917 451.037ZM556.773 455.175L554.648 457.701L557.481 460.569L559.561 458.166L556.773 455.175ZM560.592 459.273L558.542 461.643L561.337 464.472L563.341 462.222L560.592 459.273ZM564.374 463.331L562.4 465.547L565.158 468.339L567.086 466.241L564.374 463.331ZM568.11 467.34L566.212 469.406L568.929 472.157L570.781 470.206L568.11 467.34ZM571.803 471.302L569.981 473.222L572.646 475.919L574.421 474.111L571.803 471.302ZM575.443 475.208L573.699 476.985L576.319 479.637L578.016 477.969L575.443 475.208ZM579.031 479.058L577.364 480.695L579.935 483.297L581.553 481.765L579.031 479.058ZM582.56 482.845L580.973 484.348L583.483 486.889L585.023 485.487L582.56 482.845ZM586.028 486.567L584.52 487.939L586.884 490.332C587.372 490.008 587.839 489.653 588.283 489.267L588.427 489.141L586.028 486.567ZM589.43 490.216L589.427 490.219C588.947 490.638 588.441 491.023 587.915 491.375L589.9 493.384C590.489 493.148 591.061 492.873 591.613 492.559L589.43 490.216ZM592.615 493.634C592.082 493.943 591.531 494.219 590.965 494.463L592.343 495.857C592.354 495.869 592.366 495.88 592.378 495.892C592.396 495.911 592.415 495.929 592.434 495.948C593.089 495.842 593.731 495.693 594.355 495.502L592.615 493.634ZM595.4 496.623C594.87 496.805 594.328 496.959 593.775 497.085C594.126 497.34 594.492 497.576 594.873 497.792C595.414 497.826 595.959 497.831 596.502 497.805L595.4 496.623ZM923.097 249.477C922.998 251.422 922.298 253.256 921.081 254.833L912.09 245.732L917.385 241.518C917.774 241.209 918.14 240.884 918.483 240.546L919.962 241.964C922.123 244.038 923.239 246.709 923.097 249.477ZM916.291 240.529L911.062 244.691L902.121 235.64L908.133 230.623L917.412 239.519C917.066 239.873 916.692 240.21 916.291 240.529ZM907.066 229.6L901.084 234.591L892.44 225.841L898.045 220.951L907.066 229.6ZM896.976 219.926L891.402 224.79L883.03 216.316L888.253 211.564L896.976 219.926ZM887.183 210.537L881.99 215.263L873.871 207.045L878.736 202.439L887.183 210.537ZM877.666 201.413L872.83 205.991L864.941 198.006L869.469 193.555L877.666 201.413ZM868.398 192.528L863.898 196.95L856.227 189.185L860.438 184.896L868.398 192.528ZM859.362 183.864L855.179 188.125L847.707 180.561L851.617 176.44L859.362 183.864ZM850.538 175.405L846.655 179.497L839.371 172.123L842.998 168.176L850.538 175.405ZM841.912 167.134L838.313 171.052L831.2 163.852L834.558 160.084L841.912 167.134ZM833.472 159.043L830.141 162.78L823.19 155.744L826.291 152.159L833.472 159.043ZM825.204 151.116L822.129 154.67L815.327 147.785L818.185 144.387L825.204 151.116ZM640.207 -26.2477L655.728 -11.3669C651.284 -12.7445 646.118 -12.1226 642.247 -9.34753L330.012 214.374C327.096 216.467 325.324 219.529 325.162 222.773C325.013 225.685 326.15 228.525 328.36 230.762L548.698 453.795L546.747 456.177L306.712 226.047C304.545 223.973 303.436 221.308 303.577 218.534L303.57 218.534C303.711 215.64 305.201 212.981 307.743 211.058L622.604 -27.134C627.752 -31.0228 635.638 -30.6249 640.207 -26.2477ZM547.846 457.231L549.771 454.881L552.623 457.768L550.741 460.006L547.846 457.231ZM551.831 461.051L553.687 458.845L556.505 461.698L554.692 463.794L551.831 461.051ZM555.779 464.836L557.566 462.771L560.345 465.585L558.601 467.542L555.779 464.836ZM559.691 468.587L561.408 466.66L564.15 469.436L562.476 471.257L559.691 468.587ZM563.558 472.294L565.204 470.503L567.905 473.237L566.302 474.925L563.558 472.294ZM567.382 475.96L568.956 474.301L571.604 476.981L570.073 478.54L567.382 475.96ZM571.154 479.577L572.657 478.047L575.258 480.68L573.8 482.113L571.154 479.577ZM574.874 483.143L576.304 481.738L578.854 484.32L577.769 485.348C577.669 485.442 577.568 485.535 577.465 485.627L574.874 483.143ZM578.956 486.258L579.892 485.371L582.362 487.87C581.893 488.245 581.398 488.589 580.881 488.903L578.529 486.647C578.674 486.52 578.816 486.39 578.956 486.258ZM581.951 489.929C582.452 489.617 582.934 489.279 583.394 488.915L585.56 491.107C585.032 491.379 584.486 491.618 583.928 491.824L581.951 489.929ZM585.042 492.891C585.574 492.676 586.095 492.433 586.602 492.162L588.33 493.912C587.732 494.077 587.122 494.204 586.506 494.295C586.493 494.283 586.481 494.271 586.468 494.259L585.042 492.891ZM587.908 495.436C588.424 495.325 588.934 495.19 589.436 495.031L590.524 496.133C590.205 496.143 589.883 496.144 589.56 496.134C589.368 496.128 589.177 496.119 588.986 496.106C588.616 495.901 588.256 495.677 587.908 495.436ZM918.379 238.391C919.578 236.787 920.265 234.938 920.365 232.987C920.513 230.02 919.292 227.187 916.905 225.016L915.865 224.068C915.526 224.418 915.165 224.755 914.78 225.076L909.279 229.667L918.379 238.391ZM908.212 228.644L913.657 224.1C914.052 223.771 914.42 223.423 914.759 223.06L905.402 214.532L899.167 219.972L908.212 228.644ZM898.098 218.947L904.305 213.532L895.205 205.238L889.353 210.563L898.098 218.947ZM888.283 209.537L894.107 204.237L885.307 196.217L879.814 201.417L888.283 209.537ZM878.744 200.392L884.21 195.217L875.683 187.446L870.527 192.514L878.744 200.392ZM869.456 191.487L874.585 186.445L866.316 178.908L861.477 183.837L869.456 191.487ZM860.401 182.806L865.213 177.904L857.178 170.58L852.639 175.363L860.401 182.806ZM851.559 174.329L856.073 169.573L848.258 162.451L844.002 167.083L851.559 174.329ZM842.916 166.042L847.146 161.437L839.534 154.499L835.545 158.975L842.916 166.042ZM834.459 157.934L838.422 153.486L830.997 146.719L827.263 151.035L834.459 157.934ZM826.176 149.993L829.885 145.705L822.635 139.097L819.142 143.249L826.176 149.993ZM818.052 142.204L821.52 138.082L814.437 131.625L811.174 135.61L818.052 142.204ZM637.214 -29.8966L620.161 -45.4388C615.311 -49.8583 607.141 -50.0934 601.945 -45.9634L284.457 206.699C281.979 208.671 280.531 211.348 280.383 214.236L280.39 214.23C280.242 217.202 281.463 220.03 283.85 222.206L544.104 459.405L545.805 457.328L305.512 226.951C303.076 224.612 301.812 221.603 301.974 218.474C302.144 215.206 303.817 212.21 306.684 210.039L621.545 -28.159C625.972 -31.5064 632.215 -32.0337 637.214 -29.8966ZM546.904 458.382L545.228 460.429L548.147 463.09L549.784 461.144L546.904 458.382ZM550.874 462.189L549.262 464.105L552.147 466.735L553.72 464.917L550.874 462.189ZM554.807 465.959L553.259 467.749L556.106 470.343L557.614 468.651L554.807 465.959ZM558.704 469.695L557.221 471.36L560.03 473.92L561.472 472.35L558.704 469.695ZM562.554 473.387L561.137 474.929L563.905 477.451L565.281 476.001L562.554 473.387ZM566.361 477.036L565.011 478.459L567.724 480.932L569.033 479.599L566.361 477.036ZM570.115 480.636L568.832 481.942L571.448 484.326C571.818 484.029 572.172 483.714 572.509 483.382L572.741 483.154L570.115 480.636ZM573.816 484.184L573.724 484.274C573.348 484.643 572.954 484.993 572.542 485.323L574.883 487.457C575.373 487.185 575.845 486.886 576.296 486.562L573.816 484.184ZM577.358 487.58C576.919 487.897 576.463 488.193 575.991 488.466L577.961 490.263C578.491 490.082 579.006 489.874 579.506 489.639L577.358 487.58ZM580.595 490.684C580.119 490.92 579.629 491.134 579.128 491.326L580.579 492.649C581.161 492.572 581.737 492.463 582.304 492.322L580.595 490.684ZM583.469 493.439C582.997 493.577 582.52 493.695 582.037 493.794C582.37 494.018 582.715 494.227 583.07 494.42C583.556 494.456 584.045 494.469 584.533 494.459L583.469 493.439ZM917.64 216.497C917.54 218.436 916.868 220.293 915.701 221.916L906.524 213.552L912.175 208.622C912.562 208.284 912.926 207.93 913.266 207.562L913.841 208.062C916.411 210.299 917.795 213.374 917.64 216.497ZM911.024 207.67L905.428 212.552L896.305 204.238L902.723 198.398L912.132 206.576C911.791 206.958 911.421 207.323 911.024 207.67ZM901.598 197.42L895.206 203.236L886.385 195.196L892.442 189.462L901.598 197.42ZM891.319 188.486L885.288 194.196L876.741 186.406L882.46 180.784L891.319 188.486ZM881.337 179.809L875.643 185.406L867.354 177.851L872.755 172.349L881.337 179.809ZM871.628 171.369L866.252 176.846L858.198 169.506L863.299 164.13L871.628 171.369ZM862.17 163.148L857.092 168.498L849.261 161.36L854.08 156.116L862.17 163.148ZM852.943 155.128L848.149 160.347L840.519 153.393L845.07 148.285L852.943 155.128ZM843.936 147.298L839.408 152.38L831.967 145.598L836.265 140.631L843.936 147.298ZM835.129 139.644L830.855 144.585L823.589 137.962L827.646 133.139L835.129 139.644ZM826.509 132.151L822.475 136.947L815.377 130.477L819.205 125.801L826.509 132.151ZM818.061 124.807L814.255 129.455L625.737 -42.3658L818.061 124.807ZM600.116 -64.636L619.491 -47.7947C613.98 -51.3489 606.074 -51.123 600.858 -46.9703L283.37 205.692C280.581 207.911 278.957 210.919 278.787 214.169C278.618 217.509 279.995 220.693 282.678 223.135L543.166 460.551L541.684 462.361L260.981 218.372C258.411 216.135 257.027 213.066 257.189 209.937L257.182 209.937C257.33 207.055 258.742 204.354 261.164 202.334L581.279 -64.7927C586.525 -69.176 594.976 -69.1036 600.116 -64.636ZM542.83 463.357L544.289 461.575L547.194 464.223L545.772 465.914L542.83 463.357ZM546.909 466.903L548.308 465.239L551.178 467.854L549.816 469.429L546.909 466.903ZM550.951 470.416L552.291 468.868L555.121 471.448L553.819 472.909L550.951 470.416ZM554.958 473.899L556.237 472.465L559.029 475.01L557.789 476.359L554.958 473.899ZM558.919 477.342L560.136 476.018L562.886 478.525L561.996 479.463C561.9 479.564 561.802 479.664 561.703 479.762L558.919 477.342ZM563.246 480.319L563.992 479.533L566.67 481.974C566.274 482.336 565.857 482.676 565.422 482.995L562.83 480.741C562.971 480.603 563.109 480.463 563.246 480.319ZM566.551 483.976C566.975 483.662 567.382 483.33 567.772 482.979L570.223 485.213C569.789 485.494 569.338 485.755 568.872 485.993L566.551 483.976ZM570.021 486.992C570.468 486.751 570.902 486.491 571.322 486.214L573.455 488.158C572.978 488.362 572.488 488.543 571.987 488.701L570.021 486.992ZM573.203 489.758C573.675 489.588 574.138 489.399 574.589 489.192L576.282 490.734C575.746 490.854 575.2 490.947 574.646 491.012L573.203 489.758ZM576.17 492.163C576.623 492.077 577.069 491.973 577.509 491.853L578.537 492.79C578.073 492.793 577.61 492.776 577.147 492.739C576.814 492.561 576.487 492.369 576.17 492.163ZM913.047 205.413C914.172 203.78 914.822 201.927 914.921 200.007C915.091 196.672 913.587 193.435 910.784 191.107L910.688 191.028C910.34 191.426 909.964 191.809 909.562 192.175L903.824 197.396L913.047 205.413ZM902.699 196.418L908.39 191.24C908.8 190.867 909.18 190.474 909.529 190.064L900.092 182.219L893.521 188.441L902.699 196.418ZM892.398 187.465L898.945 181.266L889.748 173.62L883.517 179.745L892.398 187.465ZM882.394 178.77L888.602 172.667L879.704 165.27L873.792 171.292L882.394 178.77ZM872.665 170.313L878.555 164.314L869.929 157.143L864.317 163.057L872.665 170.313ZM863.188 162.075L868.777 156.186L860.408 149.228L855.079 155.028L863.188 162.075ZM853.943 154.04L859.249 148.265L851.114 141.502L846.053 147.182L853.943 154.04ZM844.918 146.196L849.957 140.54L842.039 133.957L837.231 139.514L844.918 146.196ZM836.095 138.527L840.882 132.995L833.164 126.579L828.596 132.009L836.095 138.527ZM827.459 131.021L832.006 125.616L824.479 119.359L820.14 124.659L827.459 131.021ZM818.996 123.665L823.314 118.391L580.071 -83.8272C574.642 -88.3371 565.915 -88.2466 560.619 -83.6282L237.878 197.969C235.513 200.031 234.129 202.756 233.981 205.638L233.988 205.632C233.818 208.96 235.322 212.204 238.118 214.531L539.474 465.06L540.756 463.495L259.837 219.318C256.956 216.816 255.41 213.373 255.586 209.87C255.749 206.639 257.337 203.612 260.049 201.351L580.163 -65.7755C586.037 -70.6773 595.506 -70.5929 601.26 -65.5886L818.996 123.665ZM541.902 464.491L540.641 466.031L543.603 468.493L544.829 467.035L541.902 464.491ZM545.966 468.024L544.761 469.456L547.688 471.889L548.857 470.537L545.966 468.024ZM549.993 471.524L548.845 472.851L551.733 475.251L552.845 474.003L549.993 471.524ZM553.984 474.993L552.894 476.216L555.687 478.539C556.056 478.208 556.408 477.861 556.743 477.497L556.797 477.438L553.984 474.993ZM557.928 478.421C557.58 478.794 557.215 479.151 556.834 479.492L559.409 481.633C559.822 481.358 560.222 481.063 560.607 480.75L557.928 478.421ZM561.73 481.726C561.355 482.032 560.966 482.322 560.567 482.595L562.871 484.511C563.31 484.303 563.738 484.076 564.152 483.831L561.73 481.726ZM565.293 484.823C564.895 485.065 564.486 485.293 564.066 485.505L566.016 487.126C566.487 486.988 566.949 486.831 567.401 486.655L565.293 484.823ZM568.584 487.683C568.159 487.864 567.725 488.03 567.283 488.179L568.726 489.378C569.246 489.323 569.759 489.244 570.263 489.143L568.584 487.683ZM571.551 490.262C571.143 490.366 570.728 490.456 570.309 490.533C570.618 490.725 570.934 490.906 571.256 491.074C571.684 491.109 572.115 491.128 572.549 491.13L571.551 490.262ZM912.21 183.51C912.112 185.411 911.489 187.252 910.412 188.888L901.166 181.202L906.95 175.727C907.37 175.328 907.762 174.91 908.123 174.476C910.897 176.869 912.378 180.135 912.21 183.51ZM905.763 174.81L900.019 180.249L890.801 172.585L897.503 165.997L906.949 173.527C906.588 173.975 906.193 174.404 905.763 174.81ZM896.335 165.066L889.655 171.632L880.736 164.218L887.117 157.719L896.335 165.066ZM885.946 156.785L879.587 163.263L870.942 156.076L877.021 149.67L885.946 156.785ZM875.847 148.735L869.79 155.118L861.403 148.146L867.197 141.84L875.847 148.735ZM866.017 140.899L860.244 147.183L852.091 140.405L857.617 134.203L866.017 140.899ZM856.44 133.264L850.934 139.443L842.999 132.847L848.271 126.753L856.44 133.264ZM847.094 125.814L841.842 131.885L834.109 125.456L839.14 119.474L847.094 125.814ZM837.962 118.535L832.95 124.493L825.409 118.224L830.212 112.357L837.962 118.535ZM829.027 111.413L824.244 117.255L581.18 -84.81C575.122 -89.8505 565.378 -89.748 559.468 -84.5869L236.727 197.01C234.087 199.313 232.54 202.358 232.378 205.571C232.187 209.292 233.875 212.909 236.996 215.508L538.546 466.194L537.448 467.534L215.249 210.696C212.22 208.279 210.589 204.866 210.765 201.333C210.914 198.451 212.269 195.708 214.585 193.603L539.953 -102.464C545.298 -107.329 554.307 -107.583 560.019 -103.024L829.027 111.413ZM538.635 468.481L539.714 467.164L542.66 469.614L541.615 470.856L538.635 468.481ZM542.793 471.795L543.819 470.577L546.73 472.997L546.237 473.566C546.07 473.759 545.899 473.947 545.723 474.131L542.793 471.795ZM547.522 474.38L547.887 473.958L550.728 476.321C550.388 476.652 550.032 476.969 549.662 477.27L546.896 475.065C547.11 474.843 547.319 474.615 547.522 474.38ZM550.838 478.208C551.199 477.912 551.547 477.602 551.881 477.279L554.529 479.48C554.163 479.75 553.784 480.005 553.394 480.245L550.838 478.208ZM554.585 481.195C554.96 480.955 555.325 480.702 555.68 480.437L558.078 482.431C557.684 482.642 557.281 482.837 556.87 483.017L554.585 481.195ZM558.106 484.002C558.497 483.818 558.88 483.62 559.255 483.409L561.342 485.144C560.918 485.295 560.486 485.43 560.047 485.549L558.106 484.002ZM561.372 486.605C561.782 486.474 562.185 486.33 562.58 486.173L564.229 487.544C563.758 487.628 563.28 487.694 562.796 487.74L561.372 486.605ZM564.433 488.898C564.819 488.832 565.201 488.755 565.578 488.666L566.551 489.474C566.148 489.467 565.748 489.446 565.351 489.412C565.038 489.251 564.732 489.08 564.433 488.898ZM907.797 172.336C908.818 170.703 909.409 168.884 909.506 167.02C909.678 163.63 908.248 160.374 905.554 157.931C905.183 158.396 904.777 158.846 904.337 159.279L898.552 164.966L907.797 172.336ZM897.383 164.035L903.13 158.386C903.588 157.935 904.006 157.463 904.382 156.973L894.946 149.743L888.145 156.671L897.383 164.035ZM886.974 155.738L893.755 148.831L884.527 141.761L878.029 148.607L886.974 155.738ZM876.856 147.672L883.333 140.846L874.399 134.001L868.187 140.762L876.856 147.672ZM867.008 139.821L873.2 133.082L864.532 126.441L858.59 133.111L867.008 139.821ZM857.412 132.173L863.336 125.525L854.915 119.073L849.227 125.648L857.412 132.173ZM848.05 124.709L853.719 118.157L845.527 111.881L840.08 118.356L848.05 124.709ZM838.902 117.417L844.33 110.963L836.356 104.854L831.137 111.228L838.902 117.417ZM829.953 110.283L835.153 103.932L539.974 -122.222C537.065 -124.446 533.316 -125.58 529.404 -125.405C525.5 -125.23 521.906 -123.771 519.286 -121.293L191.292 189.238C189.026 191.385 187.691 194.152 187.55 197.028L187.543 197.034C187.352 200.778 189.118 204.36 192.38 206.862L535.586 469.807C535.632 469.752 535.678 469.697 535.723 469.641L536.523 468.664L214.154 211.691C210.779 209.002 208.965 205.21 209.162 201.273C209.325 198.071 210.836 195.014 213.413 192.669L538.781 -103.392C544.733 -108.807 554.752 -109.09 561.113 -104.019L829.953 110.283ZM537.71 469.611L537.044 470.425C536.96 470.527 536.875 470.629 536.789 470.729L539.704 472.962C540.04 472.644 540.362 472.313 540.669 471.969L537.71 469.611ZM541.843 472.905C541.54 473.24 541.223 473.563 540.894 473.874L543.631 475.971C543.984 475.71 544.326 475.436 544.657 475.148L541.843 472.905ZM545.828 476.081C545.506 476.363 545.174 476.633 544.832 476.891L547.369 478.835C547.738 478.625 548.098 478.403 548.447 478.169L545.828 476.081ZM549.633 479.115C549.297 479.346 548.952 479.567 548.599 479.777L550.873 481.519C551.26 481.362 551.639 481.192 552.01 481.009L549.633 479.115ZM553.228 481.98C552.877 482.164 552.518 482.337 552.153 482.5L554.07 483.968C554.479 483.866 554.884 483.75 555.284 483.619L553.228 481.98ZM556.571 484.645C556.2 484.782 555.825 484.908 555.445 485.022L556.86 486.106C557.312 486.068 557.758 486.013 558.199 485.943L556.571 484.645ZM559.62 487.075C559.272 487.152 558.92 487.219 558.565 487.276C558.847 487.443 559.135 487.6 559.429 487.748C559.8 487.783 560.173 487.805 560.549 487.816L559.62 487.075ZM906.801 150.53C906.707 152.387 906.16 154.159 905.197 155.773L895.968 148.702L901.732 142.831C902.185 142.368 902.601 141.887 902.979 141.39C905.597 143.879 906.978 147.129 906.801 150.53ZM900.503 141.957L894.777 147.79L885.529 140.704L892.41 133.453L901.605 140.238C901.678 140.292 901.75 140.347 901.822 140.401C901.43 140.941 900.99 141.46 900.503 141.957ZM891.198 132.559L884.336 139.79L875.383 132.931L881.977 125.754L891.198 132.559ZM880.759 124.855L874.184 132.011L865.498 125.357L871.821 118.26L880.759 124.855ZM870.607 117.364L864.302 124.44L855.865 117.976L861.932 110.962L870.607 117.364ZM860.718 110.066L854.668 117.059L846.461 110.771L852.287 103.844L860.718 110.066ZM851.072 102.948L845.264 109.853L837.274 103.732L842.871 96.896L851.072 102.948ZM841.651 95.9954L836.071 102.81L541.047 -123.234C537.82 -125.706 533.655 -126.961 529.319 -126.768C524.977 -126.569 520.995 -124.947 518.093 -122.203L190.099 188.328C187.585 190.709 186.11 193.778 185.947 196.974C185.735 201.128 187.691 205.101 191.313 207.875L534.594 470.887C534.297 471.183 533.989 471.468 533.67 471.742L169.517 203.021C166.015 200.435 164.116 196.684 164.321 192.729L164.328 192.723C164.469 189.805 165.747 187.086 167.999 184.873L498.62 -140.129C501.268 -142.721 504.932 -144.289 508.957 -144.53C512.981 -144.771 516.879 -143.668 519.929 -141.419L841.651 95.9954ZM534.889 472.642C535.199 472.372 535.5 472.093 535.791 471.804L538.575 473.937C538.262 474.185 537.94 474.422 537.608 474.648L534.889 472.642ZM538.836 475.554C539.156 475.33 539.467 475.096 539.77 474.853L542.352 476.831C542.022 477.032 541.684 477.223 541.341 477.403L538.836 475.554ZM542.608 478.337C542.935 478.156 543.256 477.965 543.571 477.765L545.925 479.569C545.579 479.725 545.227 479.87 544.869 480.006L542.608 478.337ZM546.197 480.986C546.533 480.845 546.864 480.696 547.189 480.537L549.225 482.097C548.857 482.207 548.483 482.306 548.104 482.393L546.197 480.986ZM549.534 483.449C549.883 483.35 550.227 483.242 550.566 483.125L552.154 484.341C551.746 484.399 551.335 484.443 550.923 484.474L549.534 483.449ZM552.683 485.646C553.002 485.597 553.32 485.541 553.636 485.477L554.524 486.157C554.183 486.143 553.843 486.12 553.506 486.087C553.227 485.948 552.952 485.801 552.683 485.646ZM902.609 139.177C903.508 137.585 904.02 135.853 904.111 134.046C904.285 130.633 902.951 127.382 900.402 124.852C900.015 125.381 899.587 125.892 899.119 126.383L893.416 132.393L902.609 139.177ZM892.204 131.499L897.877 125.521C898.388 124.982 898.848 124.416 899.253 123.828C899.023 123.644 898.785 123.464 898.54 123.29L889.897 117.135L882.964 124.68L892.204 131.499ZM881.746 123.781L888.661 116.255L879.451 109.696L872.79 117.172L881.746 123.781ZM871.576 116.276L878.22 108.82L869.288 102.459L862.884 109.862L871.576 116.276ZM861.67 108.966L868.058 101.583L859.384 95.4065L853.222 102.732L861.67 108.966ZM852.008 101.836L858.153 94.5297L849.723 88.5269L843.791 95.7721L852.008 101.836ZM842.571 94.8715L848.487 87.6463L499.87 -160.61C493.282 -165.301 483.454 -164.553 477.946 -158.946L144.699 180.52C142.489 182.769 141.239 185.506 141.091 188.436L141.091 188.43C140.879 192.597 142.906 196.516 146.655 199.187L531.57 473.291C531.886 473.092 532.195 472.883 532.496 472.666L168.487 204.052C164.603 201.188 162.513 197.04 162.732 192.669C162.902 189.437 164.3 186.435 166.792 183.981L497.42 -141.015C500.336 -143.891 504.403 -145.621 508.851 -145.892C513.299 -146.158 517.613 -144.94 520.981 -142.45L842.571 94.8715ZM533.726 473.574C533.437 473.788 533.14 473.995 532.838 474.194L535.331 475.969C535.657 475.81 535.977 475.643 536.29 475.466L533.726 473.574ZM537.542 476.39C537.245 476.566 536.941 476.735 536.633 476.896L538.856 478.479C539.193 478.361 539.526 478.234 539.855 478.097L537.542 476.39ZM541.165 479.063C540.857 479.203 540.546 479.335 540.231 479.459L542.128 480.809C542.483 480.733 542.835 480.648 543.183 480.553L541.165 479.063ZM544.58 481.584C544.263 481.686 543.941 481.781 543.616 481.869L544.992 482.849C545.242 482.833 545.492 482.811 545.742 482.785C545.877 482.771 546.012 482.756 546.146 482.739L544.58 481.584ZM547.695 483.882C547.404 483.937 547.112 483.985 546.817 484.028C547.067 484.167 547.321 484.3 547.578 484.426C547.895 484.459 548.213 484.483 548.532 484.5L547.695 483.882ZM901.421 117.55C901.332 119.306 900.855 121 900.021 122.567C899.874 122.454 899.724 122.344 899.571 122.235L890.891 116.054L896.507 109.941C896.987 109.417 897.425 108.872 897.818 108.308C900.278 110.883 901.592 114.18 901.421 117.55ZM895.243 109.091L889.655 115.174L880.426 108.602L887.409 100.765L895.483 106.324C895.904 106.613 896.304 106.92 896.685 107.242C896.265 107.884 895.784 108.503 895.243 109.091ZM886.161 99.9067L879.195 107.725L870.246 101.353L876.971 93.5799L886.161 99.9067ZM875.724 92.7217L869.015 100.476L860.325 94.2878L866.806 86.5827L875.724 92.7217ZM865.559 85.7244L859.094 93.4111L850.648 87.3972L856.899 79.7628L865.559 85.7244ZM855.647 78.901L849.412 86.5166L500.9 -161.659C493.635 -166.826 482.79 -166.006 476.718 -159.82L143.47 179.646C141.027 182.13 139.651 185.144 139.488 188.376C139.255 192.97 141.494 197.293 145.631 200.242L530.185 474.083C529.897 474.232 529.603 474.375 529.305 474.51L123.8 195.358C119.86 192.645 117.643 188.448 117.862 184.131C118.01 181.201 119.238 178.44 121.406 176.155L457.287 -177.781C459.97 -180.615 463.804 -182.388 468.061 -182.773C472.312 -183.159 476.492 -182.11 479.824 -179.813L855.647 78.901ZM530.655 475.439C530.935 475.301 531.212 475.158 531.484 475.008L533.779 476.642C533.48 476.757 533.177 476.864 532.87 476.964L530.655 475.439ZM534.288 477.941C534.573 477.834 534.854 477.723 535.131 477.605L537.097 479.005C536.781 479.084 536.464 479.155 536.144 479.218L534.288 477.941ZM537.689 480.282C537.979 480.208 538.267 480.127 538.552 480.042L540.088 481.135C539.743 481.173 539.397 481.201 539.052 481.22L537.689 480.282ZM540.945 482.409C541.201 482.373 541.456 482.334 541.71 482.29L542.503 482.855C542.23 482.838 541.958 482.815 541.687 482.786C541.437 482.667 541.189 482.541 540.945 482.409ZM897.425 105.958C898.201 104.416 898.645 102.761 898.731 101.054C898.905 97.6741 897.631 94.3812 895.232 91.7652C894.831 92.3614 894.382 92.9386 893.888 93.4935L888.376 99.6799L896.486 105.263C896.809 105.485 897.122 105.717 897.425 105.958ZM887.128 98.8212L892.617 92.6615C893.182 92.0263 893.681 91.3592 894.112 90.6659C893.585 90.1997 893.017 89.7622 892.412 89.3575L884.935 84.374L877.92 92.4825L887.128 98.8212ZM876.673 91.6243L883.673 83.5331L874.509 77.4247L867.739 85.4739L876.673 91.6243ZM866.492 84.6156L873.248 76.5839L864.355 70.6566L857.816 78.6432L866.492 84.6156ZM856.564 77.7814L863.088 69.8125L459.765 -199.016C456.291 -201.326 451.97 -202.35 447.6 -201.898C443.222 -201.446 439.318 -199.565 436.599 -196.611L98.099 171.79C95.9666 174.111 94.7593 176.89 94.611 179.827L94.6181 179.833C94.3852 184.367 96.7504 188.738 100.937 191.529L526.865 475.43C527.146 475.344 527.424 475.253 527.699 475.156L122.79 196.419C118.455 193.441 116.019 188.822 116.259 184.077C116.421 180.852 117.77 177.819 120.156 175.305L456.037 -178.625C458.996 -181.749 463.211 -183.696 467.892 -184.118C472.58 -184.54 477.177 -183.388 480.834 -180.862L856.564 77.7814ZM529.106 476.125C528.853 476.225 528.598 476.321 528.339 476.412L530.185 477.642C530.477 477.589 530.767 477.53 531.053 477.465L529.106 476.125ZM532.562 478.504C532.305 478.576 532.045 478.644 531.783 478.707L533.101 479.586C533.415 479.572 533.728 479.55 534.04 479.521L532.562 478.504ZM535.735 480.688C535.511 480.724 535.286 480.757 535.06 480.787C535.285 480.906 535.513 481.02 535.744 481.13C535.987 481.157 536.231 481.18 536.475 481.198L535.735 480.688ZM896.055 84.5641C895.972 86.2225 895.556 87.835 894.834 89.3486C894.383 88.9767 893.907 88.6233 893.407 88.2903L885.885 83.2763L891.275 77.0458C891.783 76.4597 892.242 75.8496 892.65 75.2192C894.994 77.8705 896.227 81.1663 896.055 84.5641ZM889.99 76.2319L884.623 82.4353L875.442 76.3156L882.474 67.9557L889.355 72.4031C890.146 72.9145 890.876 73.4791 891.539 74.0886C891.098 74.8336 890.58 75.5504 889.99 76.2319ZM881.198 67.1314L874.181 75.4748L865.272 69.5366L872.071 61.2321L881.198 67.1314ZM870.791 60.4048L864.005 68.6926L460.761 -200.089C456.955 -202.628 452.217 -203.749 447.416 -203.249C442.615 -202.754 438.329 -200.692 435.35 -197.449L96.8493 170.952C94.5122 173.502 93.1848 176.553 93.0224 179.772C92.7682 184.74 95.3594 189.534 99.9559 192.597L524.997 475.906C524.739 475.959 524.479 476.008 524.217 476.053L78.068 187.695C73.6341 184.825 71.1275 180.279 71.3676 175.534L71.3746 175.528C71.5299 172.585 72.7161 169.788 74.8132 167.43L415.94 -215.44C421.595 -221.789 432.264 -223.031 439.72 -218.214L870.791 60.4048ZM525.877 477.125C526.11 477.072 526.341 477.015 526.571 476.955L528.024 477.923C527.744 477.945 527.465 477.961 527.187 477.972L525.877 477.125ZM529.588 479.125C529.653 479.116 529.719 479.107 529.785 479.097L530.443 479.536C530.233 479.518 530.024 479.497 529.814 479.473C529.61 479.378 529.408 479.279 529.208 479.176C529.335 479.16 529.461 479.143 529.588 479.125ZM892.238 72.7484C892.911 71.2617 893.298 69.6869 893.379 68.0742C893.554 64.6601 892.355 61.3601 890.061 58.6751C889.649 59.3383 889.182 59.9806 888.663 60.5978L883.403 66.8514L890.322 71.3239C891.003 71.7643 891.642 72.2406 892.238 72.7484ZM882.127 66.0271L887.363 59.802C887.976 59.074 888.508 58.3078 888.957 57.5117C888.163 56.7559 887.271 56.0636 886.29 55.4489L880.025 51.517L872.984 60.1171L882.127 66.0271ZM871.704 59.2898L878.733 50.7055L419.675 -237.411C415.919 -239.768 411.315 -240.733 406.705 -240.142C402.094 -239.551 398.034 -237.459 395.267 -234.263L51.513 163.071C49.4514 165.459 48.2793 168.275 48.124 171.229C47.8698 176.191 50.5175 180.918 55.2057 183.86L521.246 476.348C521.491 476.341 521.736 476.329 521.981 476.313L77.1078 188.774C72.2501 185.633 69.5106 180.658 69.7789 175.467C69.9484 172.248 71.2405 169.185 73.5422 166.604L414.669 -216.266C420.861 -223.212 432.54 -224.58 440.694 -219.305L871.704 59.2898ZM523.819 477.501L524.431 477.897C524.26 477.881 524.089 477.863 523.919 477.842C523.723 477.753 523.528 477.659 523.335 477.563C523.497 477.544 523.658 477.523 523.819 477.501ZM890.703 51.5901C890.621 53.1521 890.261 54.6821 889.638 56.1346C888.906 55.4905 888.107 54.8935 887.243 54.3516L880.942 50.3971L886.057 44.15C886.585 43.5042 887.058 42.8317 887.474 42.1374C889.716 44.854 890.881 48.1587 890.703 51.5901ZM884.737 43.3722L879.649 49.5857L420.607 -238.502C416.512 -241.07 411.485 -242.131 406.45 -241.48C401.416 -240.835 396.982 -238.556 393.96 -235.065L50.2068 162.269C47.9545 164.874 46.6765 167.955 46.5141 171.175C46.2388 176.595 49.1266 181.75 54.2526 184.964L518.368 476.244C518.245 476.231 518.123 476.217 518.001 476.202C517.299 475.883 516.618 475.523 515.961 475.122L32.3504 180.032C27.401 177.011 24.6049 172.115 24.8732 166.93L24.8732 166.924C25.0215 163.97 26.1794 161.13 28.2129 158.712L374.593 -253.093C380.347 -259.936 391.574 -261.51 399.616 -256.608L883.226 38.4945C884.401 39.2101 885.454 40.0316 886.374 40.9378C885.918 41.7839 885.371 42.5986 884.737 43.3722ZM887.04 39.5268C886.173 38.7413 885.21 38.0211 884.158 37.3791L400.541 -257.723C391.786 -263.065 379.549 -261.347 373.28 -253.889L26.8996 157.916C24.6825 160.551 23.4328 163.65 23.2633 166.87C22.981 172.513 26.0241 177.849 31.4113 181.135L512.781 474.864C511.85 474.489 510.948 474.043 510.086 473.53L9.49502 176.191C4.29135 173.104 1.34719 168.027 1.62258 162.625L1.61557 162.625C1.76376 159.665 2.90042 156.801 4.90567 154.353L353.912 -271.916C356.729 -275.353 360.945 -277.65 365.788 -278.386C370.639 -279.121 375.525 -278.205 379.563 -275.805L880.162 21.5282C885.358 24.6212 888.302 29.6918 888.027 35.1001C887.951 36.6175 887.617 38.1065 887.04 39.5268Z" fill="white" fill-opacity="0.2"/>
</svg>
