<svg width="32" height="32" viewBox="0 0 32 32" fill="none" xmlns="http://www.w3.org/2000/svg">
<path d="M6.24731 5.375H3C2.73486 5.37526 2.48066 5.48071 2.29319 5.66819C2.10571 5.85566 2.00026 6.10986 2 6.375V9.62231C2.00026 9.88745 2.10571 10.1417 2.29319 10.3291C2.48066 10.5166 2.73486 10.6221 3 10.6223H6.24731C6.51245 10.6221 6.76665 10.5166 6.95413 10.3291C7.14161 10.1417 7.24705 9.88745 7.24731 9.62231V6.375C7.24705 6.10986 7.14161 5.85566 6.95413 5.66819C6.76665 5.48071 6.51245 5.37526 6.24731 5.375ZM6.24731 9.62231H3V6.375H6.24731V9.62231ZM28.9399 5.376C27.6533 5.38061 14.2206 5.37267 12.5501 5.376C12.3179 5.37487 12.092 5.45106 11.908 5.59255L9.84496 7.15604C9.71425 7.25513 9.60824 7.38311 9.5352 7.52997C9.46217 7.67683 9.42409 7.83859 9.42395 8.00261C9.42381 8.16663 9.46162 8.32846 9.5344 8.47544C9.60719 8.62242 9.71298 8.75058 9.84352 8.84989L11.9131 10.4134C12.0963 10.5479 12.3176 10.6207 12.5449 10.6211H24.4651C24.5965 10.6193 24.7218 10.5658 24.8141 10.4722C24.9063 10.3787 24.9581 10.2525 24.9581 10.1211C24.9581 9.98974 24.9063 9.86363 24.8141 9.77006C24.7218 9.6765 24.5964 9.623 24.4651 9.62115L12.5115 9.61208L10.4448 8.0508C10.4371 8.04555 10.4308 8.03849 10.4265 8.03023C10.4222 8.02197 10.4199 8.01277 10.4199 8.00344C10.4201 7.99366 10.4226 7.98405 10.4273 7.97549C10.432 7.96693 10.4388 7.95967 10.447 7.95437L12.55 6.376H25.9648V10.1223C25.9647 10.1885 25.9778 10.254 26.0033 10.315C26.0287 10.3761 26.0661 10.4314 26.1132 10.4779C26.1604 10.5243 26.2162 10.5609 26.2776 10.5855C26.3391 10.6101 26.4047 10.6222 26.4709 10.6211H28.9399C29.221 10.6208 29.4904 10.509 29.6891 10.3103C29.8879 10.1115 29.9997 9.8421 30 9.56106V6.43606C29.9997 6.15502 29.8879 5.88558 29.6891 5.68685C29.4904 5.48812 29.221 5.37633 28.9399 5.376ZM29 9.56106C29.0001 9.56897 28.9986 9.57682 28.9956 9.58415C28.9926 9.59147 28.9882 9.59813 28.9826 9.60372C28.977 9.60932 28.9704 9.61374 28.963 9.61672C28.9557 9.61971 28.9479 9.6212 28.9399 9.62112H26.9648V6.376H28.9399C28.9479 6.37591 28.9557 6.3774 28.963 6.38039C28.9704 6.38338 28.977 6.3878 28.9826 6.39339C28.9882 6.39899 28.9926 6.40565 28.9956 6.41297C28.9986 6.4203 29.0001 6.42815 29 6.43606V9.56106ZM6.24731 13.3775H3C2.73486 13.3777 2.48066 13.4832 2.29319 13.6707C2.10571 13.8581 2.00026 14.1123 2 14.3775V17.6245C2.00026 17.8897 2.10571 18.1439 2.29319 18.3313C2.48066 18.5188 2.73486 18.6243 3 18.6245H6.24731C6.51245 18.6243 6.76665 18.5188 6.95413 18.3313C7.14161 18.1439 7.24705 17.8897 7.24731 17.6245V14.3775C7.24705 14.1123 7.14161 13.8581 6.95413 13.6707C6.76665 13.4832 6.51245 13.3777 6.24731 13.3775ZM6.24731 17.6245H3V14.3775H6.24731V17.6245ZM28.9399 13.376H12.55C12.3176 13.3749 12.0914 13.4513 11.9072 13.593L9.84523 15.1609C9.71332 15.2593 9.60618 15.3871 9.53235 15.5341C9.45851 15.6812 9.42001 15.8434 9.41992 16.0079C9.41982 16.1725 9.45813 16.3348 9.53179 16.4819C9.60545 16.6291 9.71243 16.757 9.84422 16.8555L11.9001 18.4036C12.0842 18.5477 12.3112 18.626 12.5449 18.626H24.4651C24.5964 18.624 24.7217 18.5705 24.8139 18.477C24.9061 18.3834 24.9577 18.2573 24.9577 18.126C24.9577 17.9946 24.906 17.8686 24.8139 17.775C24.7217 17.6815 24.5964 17.6279 24.4651 17.626L12.5107 17.6116L10.4451 16.0562C10.4373 16.0509 10.431 16.0438 10.4266 16.0355C10.4222 16.0272 10.4199 16.018 10.4199 16.0086C10.42 15.9986 10.4227 15.9889 10.4275 15.9802C10.4324 15.9716 10.4393 15.9643 10.4478 15.959L12.55 14.376H25.9648V18.1245C25.9647 18.1903 25.9776 18.2555 26.0027 18.3163C26.0277 18.3771 26.0646 18.4324 26.111 18.479C26.1575 18.5255 26.2127 18.5625 26.2734 18.5877C26.3342 18.613 26.3993 18.626 26.4651 18.626H28.9399C29.2216 18.625 29.4914 18.5123 29.6902 18.3127C29.8889 18.1131 30.0003 17.8427 30 17.5611V14.4409C30.0003 14.1593 29.8889 13.8889 29.6902 13.6893C29.4914 13.4897 29.2216 13.377 28.9399 13.376ZM29 17.5611C29.0004 17.5776 28.9943 17.5936 28.9831 17.6057C28.9719 17.6178 28.9564 17.6251 28.9399 17.626H26.9648V14.376H28.9399C28.9564 14.3769 28.9719 14.3842 28.9831 14.3963C28.9943 14.4084 29.0004 14.4244 29 14.4409V17.5611ZM6.24731 21.3797H3C2.73486 21.3799 2.48066 21.4854 2.29319 21.6728C2.10571 21.8603 2.00026 22.1145 2 22.3797V25.627C2.00026 25.8921 2.10571 26.1463 2.29319 26.3338C2.48066 26.5213 2.73486 26.6267 3 26.627H6.24731C6.51245 26.6267 6.76665 26.5213 6.95413 26.3338C7.14161 26.1463 7.24705 25.8921 7.24731 25.627V22.3797C7.24705 22.1145 7.14161 21.8603 6.95413 21.6728C6.76665 21.4854 6.51245 21.3799 6.24731 21.3797ZM6.24731 25.627H3V22.3797H6.24731V25.627ZM28.9399 21.3809C27.652 21.3855 14.2218 21.3776 12.5501 21.3809C12.3179 21.3797 12.0919 21.456 11.908 21.5977L9.84521 23.1609C9.71444 23.26 9.60836 23.3879 9.53528 23.5348C9.4622 23.6817 9.4241 23.8435 9.42396 24.0076C9.42382 24.1717 9.46164 24.3335 9.53447 24.4805C9.60731 24.6275 9.71317 24.7557 9.84377 24.855L11.9131 26.4182C12.0963 26.5528 12.3176 26.6255 12.5449 26.626H24.4651C24.5964 26.624 24.7217 26.5705 24.8139 26.4769C24.9061 26.3834 24.9577 26.2573 24.9577 26.126C24.9577 25.9946 24.906 25.8686 24.8139 25.775C24.7217 25.6815 24.5964 25.6279 24.4651 25.626L12.5112 25.617L10.4451 24.0562C10.4373 24.0509 10.431 24.0438 10.4266 24.0355C10.4222 24.0272 10.4199 24.0179 10.4199 24.0086C10.42 23.9988 10.4225 23.9892 10.4273 23.9806C10.432 23.972 10.4388 23.9648 10.447 23.9595L12.55 22.3809H25.9648V26.127C25.9648 26.193 25.9778 26.2585 26.0032 26.3194C26.0286 26.3804 26.0659 26.4357 26.1129 26.4821C26.1598 26.5286 26.2156 26.5652 26.2768 26.5899C26.3381 26.6146 26.4036 26.6269 26.4697 26.626H28.9399C29.221 26.6257 29.4904 26.5139 29.6891 26.3151C29.8879 26.1164 29.9997 25.847 30 25.5659V22.4409C29.9997 22.1599 29.8879 21.8905 29.6891 21.6917C29.4904 21.493 29.221 21.3812 28.9399 21.3809ZM29 25.5659C29.0001 25.5739 28.9986 25.5817 28.9956 25.589C28.9926 25.5964 28.9882 25.603 28.9826 25.6086C28.977 25.6142 28.9704 25.6186 28.963 25.6216C28.9557 25.6246 28.9479 25.6261 28.9399 25.626H26.9648V22.3809H28.9399C28.9479 22.3808 28.9557 22.3823 28.963 22.3853C28.9704 22.3883 28.977 22.3927 28.9826 22.3983C28.9882 22.4039 28.9926 22.4105 28.9956 22.4179C28.9986 22.4252 29.0001 22.433 29 22.4409V25.5659Z" fill="#2183ED"/>
</svg>
